<?xml version="1.0" encoding="utf-8"?>
<!-- Generator: Adobe Illustrator 24.3.0, SVG Export Plug-In . SVG Version: 6.00 Build 0)  -->
<svg version="1.1" id="Layer_1" xmlns="http://www.w3.org/2000/svg" xmlns:xlink="http://www.w3.org/1999/xlink" x="0px" y="0px"
	 viewBox="0 0 278.9 386.6" style="enable-background:new 0 0 278.9 386.6;" xml:space="preserve">
<style type="text/css">
	.st0{fill:#CEA13C;}
	.st1{fill:#CEA23B;}
	.st2{fill:#FFFFFF;}
</style>
<g>
	<g>
		<g>
			<g>
				<path class="st0" d="M135.7,86.2c0.8-1.2,1.3-2.1,1.9-2.9c1.9-2.3,3.9-4.6,5.9-6.8c2.8-3.1,5.7-6.2,8.4-9.3
					c2.6-2.9,5.1-5.9,6.9-9.4c2.8-5.4,3.7-11.2,3.7-17.2c0-2.4,1.4-3.5,3.8-3.2c0.9,0.2,1.6,0.6,1.8,1.5c0.2,0.8,0.4,1.5,0.4,2.3
					c-0.2,6-1,12-3.5,17.6c-1.1,2.5-2.6,4.9-4.3,7.1c-2,2.7-4.3,5.1-6.5,7.7c-1.5,1.7-3,3.4-4.6,5.1c-1.8,2.1-3.8,4-5.5,6.2
					c-1.7,2.2-3.3,4.6-4.8,7c-0.3,0.5-0.3,1.4,0,2c2.3,6.2,3.6,12.6,3.9,19.1c0.3,5.9-0.2,11.9-0.4,17.8c-0.1,3-0.6,104.7-0.9,107.6
					c-0.2,2.3-1.2,3.2-3.4,3.3c-1.1,0-2-0.5-2.3-1.5c-0.3-1.2-0.5-2.5-0.3-3.6c1-5.4,1.3-109.4,1.5-114.9c0.3-8-0.4-16-3-23.7
					c-1.5-4.5-3.5-8.8-6.3-12.6c-3-4.2-6.3-8.3-9.3-12.6c-5-7.2-7.7-15.2-7.5-24.1c0.1-2.9,0.4-5.8,0.6-8.8c0.1-1.1,0.5-2.1,1.7-2.5
					c1.3-0.4,2.6-0.4,3.6,0.5c0.4,0.4,0.6,1.1,0.6,1.7c0,1.1-0.1,2.2-0.2,3.3c-0.1,3-0.6,6.1-0.4,9.1c0.3,4,1.1,7.9,3.1,11.6
					c1.2,2.3,2.6,4.4,4.1,6.5c0.7,1.1,1,1,1.6-0.1c0.7-1.2,1.7-2.3,2.4-3.5c2.8-4.9,6-9.6,8.1-14.9c2.3-5.7,2.7-11.5,1.8-17.5
					c-0.2-1.2-0.3-2.4-0.5-3.6c-0.1-0.9-0.2-1.8,0.8-2.4c1.1-0.7,2.2-0.9,3.4-0.3c1.1,0.5,1.4,1.4,1.7,2.5
					c1.4,6.7,1.5,13.3-0.4,19.9c-1,3.5-2.3,6.9-4.3,10c-1.5,2.4-2.9,4.9-4.4,7.3c-1.6,2.6-3.3,5.2-4.8,7.9c-0.2,0.4-0.3,1.3,0,1.7
					c1.3,2,2.6,3.9,4,5.9C134.4,84.1,134.9,85,135.7,86.2z"/>
				<path class="st1" d="M138.4,242.6c-1.5,0-2.6-0.8-3-2.1c-0.3-1-0.6-2.6-0.3-3.9c0.7-3.8,1.1-60.6,1.3-91.1
					c0.1-12.8,0.1-22.1,0.2-23.6c0.3-9.2-0.6-16.6-3-23.4c-1.8-5.1-3.7-9-6.1-12.4c-1.2-1.7-2.5-3.4-3.8-5.1c-1.8-2.4-3.7-5-5.5-7.5
					c-5.3-7.7-7.9-15.9-7.7-24.5c0.1-2.5,0.3-5.1,0.5-7.5l0.1-1.3c0.1-1.7,0.9-2.7,2.2-3.2c1.7-0.6,3.2-0.4,4.4,0.7
					c0.6,0.6,0.9,1.5,0.9,2.3c0,0.8,0,1.5-0.1,2.3c0,0.4-0.1,0.8-0.1,1.1c0,0.9-0.1,1.8-0.2,2.8c-0.2,2.1-0.3,4.2-0.2,6.3
					c0.3,4.5,1.3,8.1,3,11.2c1.2,2.2,2.6,4.3,4,6.4c0,0.1,0.1,0.1,0.1,0.2c0-0.1,0.1-0.1,0.1-0.2c0.4-0.6,0.8-1.2,1.2-1.7
					c0.4-0.6,0.9-1.2,1.2-1.8c0.7-1.2,1.4-2.4,2.1-3.5c2.1-3.6,4.4-7.3,5.9-11.3c2.1-5.3,2.7-10.9,1.7-17.1
					c-0.1-0.6-0.2-1.1-0.2-1.7c-0.1-0.7-0.2-1.3-0.3-2c-0.1-0.8-0.4-2.3,1.2-3.2c0.9-0.6,2.4-1.2,4.1-0.3c1.4,0.7,1.9,2,2.1,3.1
					c1.5,7.3,1.4,13.9-0.4,20.3c-1.1,4.1-2.6,7.4-4.4,10.2c-0.9,1.5-1.8,3-2.7,4.5c-0.5,0.9-1.1,1.9-1.6,2.8
					c-0.6,0.9-1.2,1.9-1.7,2.8c-1,1.7-2.1,3.4-3.1,5.1c-0.1,0.2-0.1,0.7,0,0.9c0.8,1.3,1.7,2.6,2.5,3.8c0.5,0.7,1,1.4,1.4,2.1
					c0.4,0.6,0.8,1.2,1.2,1.9c0,0,0,0,0,0c0,0,0,0,0,0c0.4-0.7,0.8-1.3,1.3-1.8c1.9-2.3,3.9-4.6,5.9-6.8c1.2-1.4,2.4-2.7,3.7-4
					c1.6-1.8,3.2-3.5,4.8-5.3c2.7-3.1,5.1-5.9,6.8-9.3c2.5-4.8,3.7-10.3,3.7-16.9c0-1.8,0.7-2.7,1.3-3.2c0.8-0.7,2-1,3.4-0.7
					c1.6,0.3,2.2,1.3,2.4,2.1l0.1,0.4c0.2,0.7,0.4,1.4,0.3,2.2c-0.2,7.3-1.4,13-3.6,17.9c-1,2.3-2.5,4.7-4.4,7.2
					c-1.5,2-3.2,4-4.9,5.8c-0.6,0.6-1.1,1.3-1.7,1.9c-1,1.2-2.1,2.3-3.1,3.5l-1.5,1.6c-0.6,0.6-1.1,1.2-1.7,1.9
					c-1.3,1.4-2.6,2.8-3.8,4.3c-1.8,2.3-3.4,4.8-4.7,7c-0.1,0.2-0.1,0.8,0,1.3c2.3,6.3,3.7,12.8,4,19.4c0.2,4.8,0,9.7-0.3,14.4
					c-0.1,1.2-0.1,2.3-0.2,3.5c-0.1,1.1-0.1,17.2-0.3,35.7c-0.2,31.2-0.4,70.1-0.6,72c-0.3,2.7-1.6,3.9-4.2,4
					C138.5,242.6,138.4,242.6,138.4,242.6z M115.1,38.1c-0.4,0-0.8,0.1-1.2,0.2c-0.5,0.2-1,0.5-1.1,1.8l-0.1,1.3
					c-0.2,2.4-0.4,5-0.5,7.4c-0.2,8.3,2.3,16.2,7.4,23.6c1.7,2.5,3.6,5,5.4,7.5c1.3,1.7,2.6,3.4,3.8,5.1c2.5,3.5,4.6,7.6,6.4,12.8
					c2.4,6.9,3.4,14.5,3,23.9c-0.1,1.5-0.1,10.8-0.2,23.6c-0.2,32.7-0.6,87.5-1.3,91.4c-0.2,1.1,0.1,2.4,0.3,3.2
					c0.2,0.8,0.9,0.9,1.5,0.9c1.8,0,2.4-0.7,2.6-2.6c0.2-1.8,0.4-42.3,0.6-71.8c0.1-19.4,0.2-34.6,0.3-35.8c0.1-1.2,0.1-2.3,0.2-3.5
					c0.2-4.7,0.5-9.5,0.3-14.2c-0.3-6.4-1.6-12.8-3.9-18.9c-0.3-0.8-0.4-2,0.1-2.7c1.4-2.2,3-4.8,4.8-7.1c1.2-1.5,2.6-3,3.9-4.4
					c0.6-0.6,1.1-1.2,1.7-1.8l1.5-1.6c1-1.1,2.1-2.3,3.1-3.4c0.6-0.6,1.1-1.3,1.7-1.9c1.6-1.8,3.3-3.7,4.8-5.7
					c1.8-2.5,3.2-4.7,4.2-6.9c2.1-4.7,3.2-10.1,3.5-17.3c0-0.5-0.1-1.1-0.3-1.7l-0.1-0.4c-0.1-0.4-0.3-0.8-1.1-0.9
					c-0.7-0.1-1.6-0.1-2.1,0.4c-0.6,0.5-0.7,1.4-0.7,2c0,6.8-1.3,12.5-3.8,17.6c-1.8,3.5-4.2,6.4-7,9.6c-1.6,1.8-3.2,3.5-4.8,5.3
					c-1.2,1.3-2.4,2.7-3.7,4c-2,2.2-4,4.5-5.9,6.8c-0.4,0.5-0.7,1-1.1,1.7c-0.2,0.3-0.5,0.7-0.7,1.1l-0.7,1.1l-0.7-1.1
					c-0.3-0.4-0.5-0.8-0.7-1.1c-0.4-0.7-0.8-1.3-1.1-1.9c-0.5-0.7-0.9-1.4-1.4-2.1c-0.9-1.2-1.7-2.5-2.5-3.8c-0.4-0.7-0.4-1.8,0-2.5
					c1-1.7,2.1-3.4,3.1-5.1c0.6-0.9,1.2-1.9,1.7-2.8c0.6-0.9,1.1-1.8,1.6-2.8c0.9-1.5,1.8-3.1,2.7-4.6c1.7-2.7,3.1-5.9,4.2-9.8
					c1.7-6.1,1.8-12.4,0.4-19.5c-0.2-1.1-0.6-1.6-1.3-2c-0.8-0.4-1.6-0.3-2.6,0.3c-0.5,0.3-0.6,0.6-0.4,1.5c0.1,0.7,0.2,1.3,0.3,2
					c0.1,0.6,0.2,1.1,0.2,1.7c1,6.5,0.4,12.4-1.8,17.9c-1.6,4.1-3.9,7.8-6,11.5c-0.7,1.2-1.4,2.3-2.1,3.5c-0.4,0.7-0.9,1.3-1.3,1.9
					c-0.4,0.5-0.8,1.1-1.1,1.6c-0.3,0.5-0.7,1.2-1.5,1.2c0,0,0,0,0,0c-0.7,0-1.1-0.6-1.5-1.1c-1.4-2-2.8-4.2-4.1-6.5
					c-1.8-3.4-2.9-7.2-3.2-11.9c-0.2-2.2,0-4.4,0.2-6.5c0.1-0.9,0.1-1.8,0.2-2.7c0-0.4,0.1-0.8,0.1-1.2c0.1-0.7,0.1-1.4,0.1-2
					c0-0.5-0.2-1-0.4-1.1C116.2,38.3,115.7,38.1,115.1,38.1z"/>
			</g>
			<g>
				<path class="st0" d="M113.2,96.8c-1.3-1.5-2.5-3-3.8-4.4c-3.4-3.6-7-7.1-10.2-10.9c-3.4-4-5.6-8.8-7.2-13.8
					c-1.3-4-1.5-8.2-1.8-12.4c-0.1-1.6,0.1-3.1,1.7-4c1.4-0.8,3.7,0,3.9,1.6c0.3,2.1,0.6,4.2,0.6,6.2c0.1,4.4,1.5,8.4,3.4,12.3
					c2.3,4.8,6,8.5,9.5,12.3c2.7,3,5.4,6,8.1,8.9c4.4,4.7,7.5,10.2,10.2,16c3.9,8.5,2.6,16.6,2.3,20.8c-2.4,25.6-0.5,51.5-1.2,77.2
					c-0.5,21.4-0.8,32.1-0.7,33.3c1.2,11.6-0.7,23.3-0.9,34.9c0,1.2-0.1,4.6-1.9,5.4c-0.5,0.2-0.9,0.2-1.2,0.1
					c-5-0.5-4.3,0.2-8.8-0.6c-2.7-0.5-4.1-0.7-4.1-1.1c0-0.9,6.4-0.4,9.7-4.5c1.6-2,1.7-4.3,2-5.2c2-6.1,2.5-147.8,0.9-154.1
					c-0.9-3.8-2.5-7.2-5.7-9.6c-2-1.5-4.4-2.1-6.9-2.4c-0.4-0.1-0.8,0-1.2-0.1c-4.6-1.1-8.5,0.7-11.9,3.4c-1.6,1.2-2.6,3.2-3.7,5
					c-0.9,1.4-2.5,2.2-4,1.7c-1.6-0.6-2.4-2.8-1.5-4.2c0.9-1.4,1.8-2.8,2.8-4.1c0.7-0.9,1.6-1.7,2.4-2.6c0.2-0.2,0.4-0.6,0.4-0.9
					c0-0.1-0.5-0.4-0.8-0.4c-5.4-1-9.8-3.9-13.5-7.8c-2.1-2.2-3.7-4.8-5.1-7.5c-1.1-2.2-0.6-3.6,1.4-4.6c1.1-0.5,2.4-0.3,3.2,0.7
					c0.6,0.8,1.2,1.6,1.6,2.5c1.4,2.8,3.2,5.2,5.8,7.1c1.1,0.8,2,1.9,3.3,2.3c1.6,0.6,3.2,1.4,4.9,1.6c4.9,0.8,9.9,1.3,14.8,1.9
					c0.2,0,0.7,0.3,1.5,0.3C112.1,97.1,112.7,96.9,113.2,96.8z"/>
				<path class="st1" d="M124.4,281.3c-0.2,0-0.4,0-0.6,0c-2.2-0.2-3.2-0.2-4.2-0.2c-1.2,0-2.1,0-4.7-0.4c-3.7-0.7-4.7-0.8-4.7-1.9
					c0-1,1-1.2,2.6-1.5c2.1-0.4,5.4-1.1,7.4-3.5c1.1-1.3,1.4-2.8,1.6-3.9c0.1-0.4,0.1-0.8,0.2-1c1.9-5.8,2.7-146.5,0.9-153.7
					c-1.1-4.3-2.8-7.2-5.4-9.1c-1.6-1.2-3.6-1.9-6.5-2.2c-0.1,0-0.3,0-0.4,0c-0.3,0-0.6,0-0.8-0.1c-3.7-0.8-7.2,0.2-11.3,3.2
					c-1.2,0.9-2,2.3-2.9,3.8c-0.2,0.3-0.4,0.7-0.6,1c-1.1,1.8-3.2,2.6-5,2c-1-0.3-1.8-1.2-2.2-2.3c-0.4-1.1-0.3-2.2,0.3-3.1
					c0.9-1.4,1.8-2.8,2.8-4.2c0.5-0.6,1-1.2,1.5-1.7c0.3-0.3,0.6-0.6,0.9-1c-5.1-0.9-9.6-3.6-13.8-8c-2-2.1-3.7-4.6-5.2-7.7
					c-0.7-1.3-0.8-2.5-0.5-3.5c0.3-0.9,1.1-1.7,2.2-2.3c1.5-0.7,3.2-0.3,4.2,0.9c0.7,0.9,1.2,1.7,1.7,2.6c1.5,2.9,3.3,5.1,5.5,6.8
					c0.3,0.2,0.6,0.5,1,0.8c0.7,0.6,1.3,1.1,2.1,1.4c0.5,0.2,1,0.4,1.6,0.6c1.1,0.4,2.1,0.9,3.2,1c3.4,0.5,6.9,0.9,10.3,1.4
					c1.5,0.2,3,0.4,4.5,0.6c0.1,0,0.2,0,0.4,0.1c0.2,0.1,0.6,0.2,1.1,0.2c0.1,0,0.1,0,0.2,0c-0.1-0.1-0.1-0.2-0.2-0.3
					c-0.9-1-1.7-2-2.6-3c-1.2-1.3-2.4-2.5-3.5-3.7c-2.2-2.3-4.5-4.7-6.7-7.2c-3.1-3.7-5.5-8.2-7.4-14.1c-1.2-3.7-1.5-7.5-1.7-11.2
					l-0.1-1.4c-0.1-0.8-0.3-3.4,2.1-4.8c0.9-0.5,2.2-0.6,3.3,0c1,0.5,1.6,1.2,1.8,2.2c0.4,2.1,0.6,4.3,0.6,6.4
					c0.1,3.7,1.1,7.4,3.3,11.9c1.9,4,5,7.4,7.9,10.6c0.5,0.5,1,1,1.4,1.6c0.9,1,1.8,2,2.7,2.9c1.8,2,3.6,4,5.5,6
					c3.9,4.2,7.2,9.4,10.3,16.3c3.7,8,2.9,15.6,2.4,20.1l-0.1,1.1c-1.5,16-1.3,32.4-1.1,48.2c0.1,9.5,0.2,19.3,0,28.9
					c-0.5,20.6-0.8,32-0.7,33.2c0.8,7.7,0.3,15.5-0.3,23.1c-0.3,3.9-0.6,8-0.7,11.9c0,1.4-0.1,5.2-2.4,6.1
					C125,281.3,124.7,281.3,124.4,281.3z M120.2,279.4c0.8,0,1.9,0,3.8,0.2c0.4,0,0.6,0.1,0.8-0.1c0.9-0.4,1.3-1.9,1.4-4.7
					c0.1-4,0.4-8.1,0.7-12c0.5-7.5,1.1-15.3,0.3-22.8c-0.1-1.3,0.1-11.4,0.7-33.4c0.2-9.6,0.1-19.4,0-28.9
					c-0.2-15.9-0.3-32.3,1.1-48.4l0.1-1.1c0.4-4.4,1.2-11.7-2.3-19.3c-3.1-6.7-6.3-11.8-10-15.8c-1.8-2-3.7-4-5.5-6
					c-0.9-1-1.8-2-2.7-2.9c-0.5-0.5-1-1-1.4-1.6c-3-3.3-6.2-6.7-8.2-11c-2.3-4.8-3.3-8.7-3.4-12.6c-0.1-2-0.3-4.1-0.6-6.1
					c-0.1-0.4-0.4-0.7-0.9-1c-0.6-0.3-1.4-0.3-1.9,0c-1,0.6-1.4,1.6-1.3,3.3l0.1,1.4c0.3,3.6,0.6,7.3,1.7,10.8
					c1.8,5.7,4.1,10,7.1,13.5c2.1,2.5,4.4,4.8,6.6,7.1c1.2,1.2,2.4,2.5,3.6,3.7c0.9,1,1.8,2,2.7,3c0.4,0.5,0.8,0.9,1.2,1.4l0.8,1
					l-1.2,0.3c-0.7,0.2-1.4,0.3-2.1,0.2c-0.6,0-1.1-0.2-1.4-0.3l-0.2,0c-1.5-0.2-3-0.4-4.5-0.5c-3.4-0.4-6.9-0.8-10.4-1.4
					c-1.2-0.2-2.4-0.7-3.5-1.1c-0.5-0.2-1-0.4-1.5-0.6c-1.1-0.4-1.9-1.1-2.6-1.7c-0.3-0.2-0.6-0.5-0.9-0.7c-2.4-1.8-4.4-4.3-6-7.4
					c-0.4-0.8-0.9-1.6-1.5-2.4c-0.5-0.7-1.4-0.9-2.2-0.5c-0.8,0.4-1.2,0.8-1.4,1.3c-0.2,0.6-0.1,1.3,0.4,2.2c1.5,2.9,3.1,5.3,5,7.3
					c4.1,4.3,8.2,6.7,13.1,7.6c0.1,0,1.4,0.3,1.4,1.2c0,0.6-0.4,1.1-0.6,1.4c-0.3,0.3-0.6,0.7-0.9,1c-0.5,0.5-1,1-1.4,1.5
					c-1,1.3-1.8,2.7-2.7,4c-0.3,0.5-0.4,1.1-0.1,1.8c0.2,0.6,0.7,1.1,1.2,1.3c1.1,0.4,2.3-0.2,3.1-1.3c0.2-0.3,0.4-0.7,0.6-1
					c0.9-1.5,1.9-3.1,3.3-4.2c2.8-2.1,7.1-4.8,12.6-3.5c0.2,0,0.4,0.1,0.6,0.1c0.2,0,0.3,0,0.5,0c2,0.3,4.9,0.8,7.3,2.5
					c3,2.2,4.9,5.4,6,10c1.8,7.2,1,148.8-0.9,154.6c-0.1,0.2-0.1,0.5-0.2,0.8c-0.2,1.2-0.6,3-1.9,4.7c-2.2,2.7-5.7,3.5-7.9,4
					c0.5,0.1,1.1,0.2,1.8,0.3c2.4,0.4,3.3,0.4,4.4,0.4C119.8,279.5,120,279.4,120.2,279.4z"/>
			</g>
			<g>
				<path class="st0" d="M183.9,101.1c1.3,1.3,2.5,2.2,3.4,3.4c1.1,1.5,2,3.1,2.8,4.7c0.6,1.3-0.3,2.8-1.6,3.4
					c-1.5,0.7-2.7,0.4-3.6-1c-0.7-1.1-1.4-2.3-2.2-3.4c-1.2-1.8-2.8-2.9-4.8-3.8c-1.3-0.6-2.6-1.3-3.9-1.6
					c-5.5-1.2-10.3,0.5-14.9,3.5c-1.2,2.1-2.7,4.1-3.6,6.4c-1.1,2.7-1.7,5.5-1.7,8.4c-0.1,4.9,0.4,145.1,2.4,149.7
					c0.4,0.8,0.3,2.5,1.5,4c2,2.6,5.3,2.2,5.3,3.3c0.1,1.1-3.2,2.5-6.1,2.6c-0.8,0-1.4-0.1-1.9-0.2c-0.4-0.1-0.9-0.2-1.3-0.6
					c-0.3-0.3-0.9-0.9-1-2.4c-2.7-31.7-2-78.6-2-78.6c0-1.8-0.2-10.9-0.6-29c-0.6-24.6-0.9-36.9-1.2-38.3c0,0-1.7-7-0.7-14.5
					c0.3-1.9,0.7-3.8,1.2-5.7c0.7-2.6,2-4.9,3.8-7c1.4-1.7,2.4-3.7,3.6-5.6c1.2-2,2.5-3.9,3.6-6c1.3-2.5,2.6-5,3.8-7.5
					c2.5-4.9,5.5-9.4,9.5-13.2c4.1-3.9,8.9-6.9,14.4-8.6c0.5-0.1,0.9-0.4,1.4-0.6c1.5-0.8,3.4-0.3,4.1,1.1c0.8,1.7,0.3,3.4-1.4,4.1
					c-1.7,0.7-3.4,1.3-5.1,2c-3.3,1.4-6.2,3.5-8.9,5.8c-0.8,0.7-1.5,1.6-2.2,2.5c-3.3,3.7-5.7,8-7.9,12.3c-1,2-2.1,4-3.2,6.2
					c0.5,0,1,0.1,1.4,0.1c5.7-0.7,11.5-1.2,17.2-2.1c2.8-0.4,5.3-1.7,7.4-3.7c1.3-1.2,2.8-2.4,3.9-3.8c1.4-1.8,2.4-3.8,3.6-5.7
					c0.6-1,1.5-1.5,2.6-1.5c1.2,0,2.2,0.5,2.6,1.7c0.2,0.7,0.3,1.6,0,2.2c-1.1,2.2-2.4,4.4-3.7,6.6c-2.6,4.2-6.7,6.5-10.9,8.7
					c-1.1,0.5-2.4,0.6-3.5,1C184.9,100.5,184.4,100.9,183.9,101.1z"/>
				<path class="st1" d="M156.7,281.5c-0.7,0-1.3-0.1-1.9-0.2c-0.6-0.1-1.2-0.4-1.6-0.7c-0.7-0.6-1.2-1.6-1.3-2.9
					c-2.6-31.3-2-78.3-2-78.7c0-1.8-0.2-10.9-0.6-29c-0.6-23.7-0.9-36.8-1.1-38.2c-0.1-0.3-1.7-7.2-0.7-14.7c0.3-2,0.7-3.9,1.2-5.9
					c0.8-2.7,2.1-5.2,3.9-7.3c1-1.2,1.7-2.5,2.6-3.9c0.3-0.5,0.6-1.1,1-1.6l0.8-1.3c0.9-1.5,1.9-3.1,2.8-4.6
					c0.9-1.7,1.8-3.5,2.7-5.2c0.4-0.7,0.7-1.5,1.1-2.2c2.8-5.6,6-10,9.6-13.5c4.4-4.2,9.4-7.2,14.8-8.8c0.4-0.1,0.8-0.3,1.3-0.6
					c1-0.5,2.1-0.6,3.1-0.3c0.9,0.3,1.7,0.9,2.1,1.7c0.5,1,0.6,2.1,0.3,3.1c-0.3,0.9-1.1,1.7-2.1,2.1c-0.9,0.4-1.8,0.7-2.7,1.1
					c-0.8,0.3-1.6,0.6-2.3,0.9c-3.5,1.5-6.5,3.8-8.7,5.6c-0.5,0.4-0.9,0.9-1.4,1.5c-0.3,0.3-0.5,0.6-0.8,0.9
					c-3.3,3.6-5.7,8-7.8,12.2c-0.7,1.4-1.4,2.8-2.2,4.2l-0.5,0.9c0,0,0,0,0.1,0c1.5-0.2,2.9-0.3,4.4-0.5c4.2-0.5,8.5-0.9,12.8-1.6
					c2.6-0.4,5-1.6,7-3.5c0.4-0.3,0.7-0.7,1.1-1c1-0.9,1.9-1.7,2.7-2.7c1-1.4,1.9-2.9,2.8-4.4c0.2-0.4,0.5-0.8,0.7-1.3
					c0.8-1.3,1.9-2,3.3-1.9c1.7,0.1,2.9,0.9,3.4,2.3c0.1,0.4,0.5,1.7-0.1,2.8c-1.1,2.2-2.4,4.4-3.7,6.6c-2.7,4.3-6.8,6.7-11.2,9
					c-0.8,0.4-1.6,0.6-2.3,0.7c-0.4,0.1-0.9,0.2-1.3,0.3c-0.2,0-0.3,0.1-0.5,0.2c0.1,0.1,0.3,0.2,0.4,0.4c0.8,0.8,1.6,1.5,2.3,2.4
					c1.1,1.5,2.1,3.2,2.8,4.9c0.7,1.6-0.2,3.6-2,4.5c-1.9,0.8-3.5,0.4-4.6-1.3c-0.4-0.6-0.8-1.3-1.2-1.9c-0.3-0.5-0.6-1-0.9-1.5
					c-1-1.5-2.4-2.6-4.4-3.5c-0.3-0.1-0.7-0.3-1-0.5c-0.9-0.5-1.8-0.9-2.8-1.1c-4.5-1-9,0-14.1,3.2c-0.3,0.6-0.7,1.2-1.1,1.8
					c-0.9,1.5-1.8,2.8-2.4,4.3c-1.1,2.6-1.6,5.3-1.7,8.1c-0.2,8.2,0.5,144.9,2.4,149.3c0.1,0.3,0.2,0.7,0.3,1.2
					c0.2,0.8,0.4,1.8,1,2.7c1,1.3,2.4,1.7,3.5,2.1c1,0.3,2,0.6,2,1.7c0,0.3-0.1,0.8-0.5,1.3c-1.1,1.2-3.9,2.1-6.4,2.2
					C156.8,281.5,156.7,281.5,156.7,281.5z M191,63.2c-0.4,0-0.8,0.1-1.2,0.3c-0.5,0.3-1,0.5-1.5,0.7c-5.1,1.6-9.9,4.4-14.1,8.4
					c-3.5,3.4-6.6,7.6-9.3,13c-0.4,0.7-0.7,1.5-1.1,2.2c-0.9,1.7-1.8,3.6-2.7,5.3c-0.9,1.6-1.9,3.2-2.8,4.7l-0.8,1.3
					c-0.3,0.5-0.6,1-0.9,1.6c-0.8,1.4-1.7,2.8-2.7,4.1c-1.7,2-2.9,4.2-3.6,6.7c-0.5,1.8-0.9,3.7-1.2,5.6c-1,7.2,0.6,14.1,0.6,14.2
					c0.3,1.6,0.6,13.1,1.2,38.5c0.4,18.2,0.6,27.3,0.6,29.1c0,0.5-0.6,47.3,2,78.6c0.1,0.9,0.3,1.5,0.7,1.8c0.2,0.2,0.5,0.3,0.9,0.4
					c0.6,0.1,1.2,0.2,1.8,0.2c2.5,0,4.7-1.1,5.2-1.6c-0.2-0.1-0.6-0.2-0.8-0.3c-1.2-0.4-2.9-0.9-4.2-2.6c-0.9-1.2-1.2-2.4-1.4-3.3
					c-0.1-0.3-0.1-0.7-0.2-0.8c-2.2-4.9-2.5-148.6-2.5-150c0.1-3,0.7-6,1.8-8.7c0.7-1.6,1.6-3.1,2.5-4.6c0.4-0.6,0.8-1.3,1.2-1.9
					l0.1-0.2l0.2-0.1c5.6-3.6,10.5-4.7,15.5-3.6c1.1,0.2,2.1,0.7,3.1,1.2c0.3,0.2,0.6,0.3,1,0.5c2.3,1,4,2.4,5.1,4.1
					c0.3,0.5,0.6,1,0.9,1.5c0.4,0.6,0.8,1.3,1.2,1.9c0.7,1,1.5,1.2,2.6,0.7c0.9-0.4,1.6-1.4,1.2-2.3c-0.7-1.6-1.6-3.2-2.7-4.6
					c-0.6-0.8-1.3-1.4-2.1-2.2c-0.4-0.4-0.8-0.7-1.2-1.1l-0.8-0.8l1-0.5c0.1-0.1,0.3-0.1,0.4-0.2c0.4-0.2,0.8-0.5,1.3-0.6
					c0.5-0.2,1-0.3,1.4-0.4c0.7-0.2,1.4-0.3,2-0.6c4.2-2.1,8.1-4.4,10.6-8.4c1.3-2.2,2.6-4.4,3.7-6.5c0.2-0.3,0.1-1,0-1.6
					c-0.1-0.3-0.3-1.1-1.9-1.1c-0.8,0-1.4,0.3-1.9,1.1c-0.2,0.4-0.5,0.8-0.7,1.3c-0.9,1.5-1.8,3.1-2.9,4.6c-0.8,1.1-1.9,2-2.9,2.9
					c-0.4,0.3-0.7,0.6-1.1,1c-2.3,2.1-5,3.5-7.9,3.9c-4.3,0.6-8.6,1.1-12.8,1.6c-1.5,0.2-2.9,0.3-4.4,0.5c-0.4,0-0.7,0-1.1,0
					c-0.2,0-0.3,0-0.5-0.1l-1.2-0.1l1.6-3.1c0.8-1.4,1.5-2.8,2.2-4.2c2.2-4.3,4.6-8.7,8-12.5c0.2-0.3,0.5-0.6,0.7-0.8
					c0.5-0.6,1-1.2,1.6-1.7c2.3-1.9,5.4-4.3,9.1-5.9c0.8-0.3,1.6-0.6,2.4-0.9c0.9-0.3,1.8-0.7,2.7-1.1c0.6-0.3,1-0.7,1.2-1.2
					c0.2-0.5,0.1-1.2-0.2-1.8c-0.2-0.4-0.6-0.8-1.1-0.9C191.5,63.3,191.3,63.2,191,63.2z"/>
			</g>
			<g>
				<path class="st0" d="M100.2,49.2c0,0,0.8-2.5,3.2-4.4c0.6-0.5,1.1-0.3,1.3,0.3c0.5,1.4,1.3,2.8,1.4,4.2c0.2,3.2-0.9,6.1-3.4,8.3
					c-0.7,0.6-1.2,0.5-1.5-0.3c-0.3-0.8-0.5-1.3-0.5-1.3c-0.3-1.9-0.7-2.1-0.8-3.7C99.8,51.8,99.8,50.6,100.2,49.2z"/>
				<path class="st1" d="M101.8,58.8c-0.1,0-0.2,0-0.4,0c-0.3-0.1-0.8-0.4-1.1-1.1c-0.4-1-0.5-1.4-0.5-1.5h0
					c-0.1-0.8-0.3-1.3-0.4-1.7c-0.2-0.6-0.4-1.1-0.4-2.1c0-0.8,0-2,0.4-3.3l0,0c0-0.1,0.9-2.7,3.4-4.8c0.6-0.5,1.2-0.5,1.5-0.4
					c0.5,0.1,0.9,0.5,1.1,1.1c0.1,0.3,0.2,0.6,0.4,0.9c0.5,1.1,1,2.3,1,3.6c0.2,3.6-1.1,6.7-3.7,9C102.7,58.6,102.3,58.8,101.8,58.8
					z M101.5,55.8c0.1,0.2,0.2,0.6,0.5,1.3c0,0,0,0,0,0.1c0,0,0.1-0.1,0.2-0.1c2.3-1.9,3.4-4.5,3.2-7.6c-0.1-1-0.5-2-0.9-3
					c-0.1-0.3-0.3-0.6-0.4-1c0,0,0,0,0,0c0,0,0,0-0.1,0c-2,1.7-2.9,3.9-2.9,4.1c-0.3,1.1-0.4,2.1-0.3,2.8c0,0.8,0.2,1.2,0.3,1.7
					C101.1,54.4,101.3,54.9,101.5,55.8z"/>
			</g>
			<g>
				<path class="st0" d="M95.3,89.5c-3.6,0.2-6.3-1.6-8.5-4.3c-0.9-1.2-0.6-1.7,0.8-2.2c2.7-0.8,5.3-0.3,7.7,1
					c1.1,0.6,1.9,1.7,2.9,2.6c0.1,0.1,0.1,0.2,0.2,0.3c0.3,0.5,0.6,1,0.9,1.5c-0.8,0.4-1.5,0.8-2.3,1.1
					C96.4,89.6,95.8,89.5,95.3,89.5z"/>
				<path class="st1" d="M96.3,90.4c-0.2,0-0.4,0-0.5,0c-0.1,0-0.3,0-0.4,0c-3.6,0.1-6.6-1.3-9.1-4.6c-0.4-0.5-0.9-1.3-0.6-2.1
					c0.3-0.8,1.1-1.2,1.8-1.4c2.7-0.8,5.5-0.5,8.3,1c0.9,0.5,1.6,1.2,2.3,1.9c0.3,0.3,0.5,0.6,0.8,0.8c0.2,0.2,0.3,0.4,0.3,0.5
					l1.3,2.3l-0.8,0.4c-0.2,0.1-0.4,0.2-0.7,0.3c-0.6,0.3-1.1,0.6-1.8,0.8C96.8,90.3,96.6,90.4,96.3,90.4z M95.3,88.7L95.3,88.7
					c0.2,0,0.4,0,0.6,0c0.3,0,0.6,0,0.7,0c0.5-0.2,0.9-0.4,1.4-0.6l-0.4-0.8c0-0.1-0.1-0.1-0.1-0.2c-0.3-0.3-0.5-0.5-0.8-0.8
					c-0.6-0.6-1.2-1.3-1.8-1.6c-2.5-1.3-4.8-1.6-7-0.9c-0.5,0.2-0.7,0.3-0.7,0.3c0,0,0.1,0.2,0.4,0.6C89.7,87.5,92.2,88.8,95.3,88.7
					L95.3,88.7z M97.6,87.2C97.6,87.2,97.6,87.2,97.6,87.2C97.6,87.2,97.6,87.2,97.6,87.2z"/>
			</g>
			<g>
				<path class="st0" d="M163.1,73.2c-2.5,0-2.7-0.5-1.5-2.8c2-3.7,5.1-5.5,9.2-5.6c1.2,0,1.6,0.5,1.4,1.7c-0.3,1.5-1.2,2.6-2.2,3.6
					C167.7,72.3,166.4,73.3,163.1,73.2z"/>
				<path class="st1" d="M163.4,74c-0.1,0-0.2,0-0.4,0c-1.4,0-2.4-0.2-2.8-0.9c-0.5-0.8,0-2,0.6-3c2-3.9,5.4-5.9,9.9-6
					c0.9,0,1.5,0.2,1.9,0.7c0.4,0.5,0.5,1.1,0.3,2c-0.3,1.7-1.4,2.9-2.4,4C168.4,72.8,166.9,74,163.4,74z M163.1,72.4L163.1,72.4
					c3,0.1,4.2-0.8,6.3-2.9c1-1,1.8-1.9,2-3.1c0.1-0.5,0-0.6,0-0.6l0,0c0,0-0.1-0.1-0.6-0.1c-4,0.1-6.7,1.8-8.5,5.1
					c-0.6,1.1-0.6,1.4-0.6,1.5C161.6,72.3,161.9,72.4,163.1,72.4C163.1,72.4,163.1,72.4,163.1,72.4z"/>
			</g>
			<g>
				<path class="st0" d="M106.1,68.2c0.1-0.7,0.4-2,0.7-3.2c0.4-1.4,1-1.5,2.1-0.6c3.1,2.4,4,7.1,3.1,10.1c-0.2,0.6-0.4,1.3-0.7,1.9
					c-0.4,0.7-0.9,1-1.6,0.2c-0.5-0.6-1.2-1-1.7-1.6C106.4,73.3,106.2,71.1,106.1,68.2z"/>
				<path class="st1" d="M110.5,77.9c-0.5,0-0.9-0.2-1.4-0.7c-0.3-0.3-0.5-0.5-0.8-0.8c-0.3-0.3-0.6-0.5-0.9-0.8
					c-2-2-2.1-4.6-2.2-7.3l0-0.1l0-0.1c0-0.2,0.1-0.4,0.1-0.6c0.1-0.7,0.3-1.7,0.6-2.6c0.2-0.7,0.5-1.5,1.3-1.7
					c0.8-0.2,1.5,0.2,2.1,0.7c3.4,2.6,4.3,7.6,3.3,11c-0.2,0.7-0.4,1.4-0.8,2c-0.3,0.7-0.8,1-1.3,1.1
					C110.7,77.9,110.6,77.9,110.5,77.9z M106.9,68.3c0.1,2.9,0.3,4.7,1.7,6.2c0.2,0.3,0.5,0.5,0.8,0.7c0.3,0.3,0.6,0.6,0.9,0.9
					c0.1,0.1,0.1,0.1,0.2,0.1c0,0,0.1-0.1,0.1-0.2c0.3-0.5,0.4-1.1,0.6-1.8c0.8-2.8,0-7.1-2.8-9.2c-0.3-0.3-0.5-0.4-0.6-0.4
					c-0.1,0.1-0.1,0.3-0.2,0.6c-0.3,0.9-0.4,1.8-0.6,2.5C107,67.9,107,68.1,106.9,68.3z"/>
			</g>
			<g>
				<path class="st0" d="M197.1,73.3c0.3,3.1-2,7-4.8,8.4c-0.4,0.2-0.8,0.4-1.2,0.6c-1.6,0.8-2.5,0.3-2.4-1.5
					c0.1-2.3,1.1-4.3,2.3-6.3c1.1-1.7,2.8-2.2,4.4-3c1.3-0.6,1.6-0.4,1.6,1C197.1,72.8,197.1,73,197.1,73.3z"/>
				<path class="st1" d="M189.9,83.5c-0.4,0-0.7-0.1-1-0.3c-0.7-0.4-0.9-1.3-0.9-2.4c0.2-2.6,1.3-4.8,2.5-6.6c1-1.6,2.5-2.3,4-2.9
					c0.3-0.1,0.5-0.2,0.8-0.3c0.7-0.3,1.4-0.6,2.1-0.2c0.6,0.4,0.7,1.2,0.7,1.9l0,0.5l0,0.2c0.3,3.4-2.2,7.7-5.3,9.2
					c-0.2,0.1-0.4,0.2-0.5,0.3c-0.2,0.1-0.4,0.2-0.6,0.3C190.9,83.3,190.3,83.5,189.9,83.5z M196.3,72.1c-0.1,0-0.2,0.1-0.4,0.2
					c-0.3,0.1-0.5,0.2-0.8,0.3c-1.3,0.6-2.5,1.1-3.2,2.3c-1.1,1.7-2.1,3.6-2.2,5.9c0,0.7,0.1,1,0.2,1c0.1,0,0.4,0.1,1-0.2
					c0.2-0.1,0.4-0.2,0.6-0.3c0.2-0.1,0.4-0.2,0.6-0.3c2.5-1.2,4.6-4.9,4.4-7.6l0-0.1l0-0.2l0-0.5C196.3,72.3,196.3,72.2,196.3,72.1
					z"/>
			</g>
			<g>
				<path class="st0" d="M151.1,40.3c0.2-3,1-5.4,2.8-7.4c0.6-0.6,1.4-1.2,2.2-1.5c0.2-0.1,1,0.4,1.1,0.8c0.9,2.8,0.9,5.6-0.6,8.1
					c-0.7,1.2-1.6,2.3-2.6,3.3c-0.8,0.9-2,0.6-2.3-0.5C151.4,42.1,151.2,41,151.1,40.3z"/>
				<path class="st1" d="M152.9,45c-0.1,0-0.3,0-0.4-0.1c-0.8-0.2-1.4-0.8-1.6-1.6c-0.2-0.8-0.4-1.5-0.5-2.1l-0.2-0.8l0-0.1
					c0.3-3.5,1.2-5.9,3-7.9c0.6-0.7,1.5-1.3,2.4-1.7c0.3-0.1,0.6-0.1,1,0c0.4,0.2,1.1,0.6,1.3,1.2c1,3.3,0.8,6.2-0.7,8.8
					c-0.7,1.1-1.5,2.1-2.4,3.1l-0.3,0.3C154.2,44.7,153.6,45,152.9,45z M151.9,40.3l0.1,0.6c0.1,0.6,0.3,1.4,0.5,2.1
					c0.1,0.3,0.2,0.4,0.4,0.5c0.2,0,0.4-0.1,0.5-0.2l0.3-0.3c0.8-0.9,1.6-1.8,2.2-2.9c1.2-2.2,1.4-4.6,0.5-7.5c0,0-0.2-0.1-0.3-0.2
					c-0.7,0.4-1.3,0.8-1.7,1.2C152.9,35.1,152.1,37.2,151.9,40.3z"/>
			</g>
			<g>
				<path class="st0" d="M180.4,43.4c-0.2,2.8-1.1,5.3-3.1,7.3c-1.3,1.3-3.1,2-4.9,2.4c-0.7,0.2-1-0.2-1-0.9
					c0.1-3.3,1.4-6.1,3.9-8.2c1.1-0.9,2.8-1.3,4.2-1.7C180.5,42,180.4,42.9,180.4,43.4z"/>
				<path class="st1" d="M172.1,54c-0.5,0-0.8-0.2-1-0.3c-0.3-0.2-0.6-0.7-0.6-1.5c0.1-3.5,1.6-6.6,4.2-8.8c1-0.8,2.4-1.2,3.7-1.6
					c0.3-0.1,0.6-0.2,0.8-0.2c0.6-0.2,1-0.1,1.4,0.1c0.5,0.4,0.6,1.1,0.6,1.5l0,0.3l0,0.1c-0.3,3.3-1.4,5.8-3.3,7.8
					c-1.3,1.3-3,2.1-5.3,2.6C172.4,54,172.2,54,172.1,54z M179.6,43.1c-0.2,0.1-0.5,0.1-0.7,0.2c-1.1,0.3-2.3,0.7-3.1,1.3
					c-2.3,1.9-3.6,4.5-3.6,7.6c0,0.1,0,0.1,0,0.1c0,0,0,0,0,0c2-0.4,3.5-1.1,4.5-2.2c1.7-1.7,2.6-3.9,2.9-6.7
					C179.6,43.4,179.6,43.3,179.6,43.1C179.6,43.2,179.6,43.2,179.6,43.1z"/>
			</g>
			<g>
				<path class="st0" d="M138.1,73.2c-1.5,0-1.9-0.4-1.5-1.8c1.1-4.5,5-7.1,9.3-7.7c0.7-0.1,1.1,0.1,1.1,1
					C146.6,68.4,142.7,73.3,138.1,73.2z"/>
				<path class="st1" d="M137.9,74c-0.7,0-1.4-0.1-1.9-0.7c-0.5-0.6-0.4-1.5-0.2-2.1c1.1-4.4,4.9-7.5,9.9-8.3c0.2,0,1-0.1,1.5,0.4
					c0.3,0.3,0.5,0.8,0.4,1.5c-0.4,4.2-4.7,9.3-9.5,9.3C138.1,74,138,74,137.9,74z M137.3,72.3c0,0,0.2,0.1,0.8,0.1l0,0
					c0,0,0,0,0.1,0c4.2,0,7.7-4.6,7.9-7.8c0,0,0-0.1,0-0.1c0,0-0.1,0-0.1,0c-3.4,0.5-7.5,2.6-8.6,7
					C137.2,72.2,137.3,72.3,137.3,72.3C137.3,72.3,137.3,72.3,137.3,72.3z"/>
			</g>
			<g>
				<path class="st0" d="M152.5,85.8c-0.4,0-0.9,0.1-1.3,0c-0.9-0.2-1.4-1-0.9-1.8c1.2-2.2,3-3.8,5.4-4.7c1.9-0.6,3.7-1,5.7-0.5
					c1.1,0.3,1.5,0.9,0.8,1.8C159.4,84.7,157.3,85.9,152.5,85.8z"/>
				<path class="st1" d="M151.7,86.7c-0.2,0-0.4,0-0.6,0c-0.7-0.1-1.3-0.5-1.6-1.1c-0.3-0.6-0.2-1.2,0.1-1.8c1.3-2.5,3.3-4.2,5.8-5
					c2.4-0.8,4.3-1,6.1-0.6c0.9,0.2,1.4,0.6,1.7,1.2c0.2,0.4,0.2,1-0.4,1.9c-2.9,4.3-5.3,5.6-10.3,5.5c-0.1,0-0.2,0-0.4,0
					C152,86.7,151.8,86.7,151.7,86.7z M159.5,79.4c-1.1,0-2.3,0.2-3.6,0.7c-2.2,0.7-3.8,2.2-4.9,4.3c-0.1,0.1-0.1,0.2,0,0.4
					c0.1,0.1,0.2,0.2,0.4,0.2c0.2,0,0.4,0,0.7,0c0.1,0,0.3,0,0.4,0h0c4.4,0.1,6.3-1,9-4.8c0.2-0.3,0.2-0.4,0.2-0.4c0,0,0,0,0,0
					c0,0-0.1-0.1-0.5-0.2C160.6,79.5,160.1,79.4,159.5,79.4z"/>
			</g>
			<g>
				<path class="st0" d="M117.8,83.5c0-0.4,0-1.1,0.4-1.4c0.3-0.2,0.8-0.2,1.5,0.1c1.9,0.8,3.1,2.3,4.3,3.9c1.3,1.9,1.5,4.1,1.5,6.3
					c0,1.3-0.6,1.6-1.8,1.2c-0.8-0.3-1.4-0.6-2-1.1c-1.7-1.3-2.5-3.1-2.7-3.3C119,89.2,117.9,87,117.8,83.5z"/>
				<path class="st1" d="M124.6,94.7c-0.3,0-0.7-0.1-1.1-0.2c-0.8-0.3-1.6-0.7-2.2-1.2c-1.2-0.9-2.1-2.1-2.9-3.6
					c-0.1-0.2-1.3-2.5-1.3-6.2v0c0-0.5,0-1.5,0.8-2.1c0.7-0.5,1.6-0.2,2.2,0c2.1,0.8,3.5,2.5,4.7,4.2c1.5,2.2,1.6,4.7,1.6,6.8
					c0,0.9-0.3,1.5-0.8,1.9C125.3,94.6,124.9,94.7,124.6,94.7z M118.6,83.5c0,3.3,1.1,5.4,1.1,5.4c0.7,1.4,1.5,2.4,2.4,3.1
					c0.6,0.4,1.2,0.7,1.8,1c0.4,0.1,0.6,0.1,0.6,0.1c0,0,0.1-0.1,0.1-0.6c0-1.9-0.1-4.1-1.3-5.9c-1.1-1.5-2.2-3-3.9-3.7
					c-0.6-0.2-0.7-0.2-0.7-0.2C118.7,82.8,118.6,82.9,118.6,83.5L118.6,83.5z"/>
			</g>
			<g>
				<path class="st0" d="M179.6,62.1c-1.4-0.2-2.7-0.4-4.1-0.8c-1.3-0.4-1.5-1-0.6-2c1.9-2.1,4.2-3.4,7.1-3.5c1.7,0,3.3-0.1,4.9,0.7
					c0.8,0.4,1,0.8,0.4,1.6C185.4,60.6,182.9,62,179.6,62.1z"/>
				<path class="st1" d="M179.6,62.9L179.6,62.9c-0.5-0.1-0.9-0.2-1.3-0.2c-1-0.2-1.9-0.3-2.9-0.6c-0.9-0.3-1.5-0.7-1.7-1.3
					c-0.2-0.6,0.1-1.3,0.7-2c2.2-2.5,4.8-3.7,7.7-3.7l0.4,0c1.6,0,3.2,0,4.8,0.8c0.5,0.2,1,0.6,1.1,1.3c0.1,0.7-0.3,1.3-0.5,1.5
					C185.8,61.4,183,62.8,179.6,62.9L179.6,62.9z M175.2,60.4c0,0,0.2,0.1,0.6,0.2c0.9,0.2,1.8,0.4,2.7,0.5c0.4,0.1,0.8,0.1,1.2,0.2
					c2.9-0.1,5.1-1.3,7-3.6c0.1-0.1,0.1-0.1,0.1-0.2c-0.1,0-0.1-0.1-0.3-0.2c-1.2-0.7-2.6-0.7-4-0.6l-0.5,0c-2.4,0-4.6,1.1-6.5,3.2
					C175.3,60.1,175.2,60.3,175.2,60.4z"/>
			</g>
			<g>
				<path class="st0" d="M127.5,58.2c-0.2,0.5-0.6,1-1,1.1c-0.5,0.1-1-0.2-1.5-0.8c-1.7-2.2-2.8-4.6-2.6-7.4c0.1-1.5,0.8-3,1.4-4.4
					c0.3-0.7,0.9-0.6,1.4-0.1c0.8,0.7,1.3,1.4,1.3,1.4C127.6,49.7,129,54.9,127.5,58.2z"/>
				<path class="st1" d="M126.3,60.1c-0.5,0-1.2-0.2-2-1.2c-2.1-2.7-3-5.3-2.7-8c0.1-1.4,0.7-2.8,1.2-4.1l0.2-0.6
					c0.3-0.7,0.7-0.9,1-1c0.4-0.1,1-0.1,1.7,0.6c0.9,0.8,1.4,1.5,1.5,1.6c1.2,2.2,2.5,7.6,1,11.1l0,0c-0.2,0.3-0.6,1.4-1.6,1.6
					C126.6,60.1,126.5,60.1,126.3,60.1z M124.5,46.9l-0.2,0.5c-0.5,1.2-1,2.4-1.1,3.6c-0.2,2.3,0.6,4.5,2.4,6.9
					c0.4,0.4,0.6,0.6,0.7,0.6c0,0,0.2,0,0.4-0.6c1.3-2.9,0.1-7.8-0.9-9.6l0,0c0,0-0.4-0.6-1.1-1.2C124.7,47,124.6,46.9,124.5,46.9z"
					/>
			</g>
			<g>
				<path class="st0" d="M144,99.3c-0.2-0.3,0-0.6,0-0.9c0.7-1.9,1.1-2.9,1.7-3.6c2-2.6,4.7-4.1,8.2-4c1.3,0.1,1.5,0.4,1.1,1.7
					c-0.6,2-4.3,5.7-8.8,6.9C144.4,99.8,144,99.4,144,99.3z"/>
				<path class="st1" d="M144.8,100.4c-0.6,0-1.2-0.1-1.5-0.6c-0.4-0.6-0.1-1.3,0-1.6l0-0.1c0.7-1.9,1.1-2.9,1.8-3.7
					c2.3-3,5.3-4.4,8.9-4.3c0.7,0,1.4,0.1,1.8,0.7c0.4,0.6,0.2,1.3,0,2c-0.7,2.3-4.6,6.2-9.3,7.4
					C146.1,100.2,145.5,100.4,144.8,100.4z M144.7,98.8c0.2,0,0.6,0,1.3-0.2c4.4-1.1,7.7-4.7,8.2-6.3c0.1-0.3,0.1-0.5,0.1-0.6
					c-0.1,0-0.2,0-0.5-0.1c-3-0.2-5.5,1.1-7.5,3.6c-0.5,0.7-0.8,1.5-1.5,3.3L144.7,98.8C144.8,98.7,144.8,98.8,144.7,98.8z"/>
			</g>
			<g>
				<path class="st0" d="M132.9,40.1c0,2.2-0.9,2.7-2.7,1.5c-3.6-2.3-5.7-5.5-5.4-10c0.1-1,0.6-1.3,1.4-0.9c1.9,0.8,3.7,1.9,4.8,3.7
					C132.7,37.2,132.9,37.9,132.9,40.1z"/>
				<path class="st1" d="M131.7,43c-0.9,0-1.7-0.5-2-0.7c-4.1-2.7-6.1-6.3-5.8-10.7c0.1-0.8,0.3-1.3,0.8-1.6c0.3-0.2,0.9-0.4,1.7,0
					c1.7,0.7,3.8,1.8,5.1,4.1c1.8,3,2.1,3.8,2,6.1l0,0c0,0.5,0,2.1-1.1,2.7C132.3,42.9,132,43,131.7,43z M125.6,31.3
					c0,0,0,0.1,0,0.3c-0.3,3.9,1.4,6.9,5,9.2c0.8,0.5,1.1,0.5,1.2,0.5c0,0,0.3-0.2,0.3-1.3c0-1.9-0.1-2.4-1.8-5.3
					c-0.9-1.4-2.2-2.4-4.4-3.4C125.7,31.3,125.6,31.3,125.6,31.3z"/>
			</g>
			<g>
				<path class="st0" d="M153.9,50.8c0.8,0.2,1.6,0.3,2.3,0.5c0.7,0.2,0.8,0.7,0.4,1.4c-0.9,2-2.6,3.4-4.5,4.4
					c-2.1,1.2-4.5,1.2-6.8,0.7c-0.8-0.2-1-1.3-0.3-2.3C147.3,52.6,150.2,50.9,153.9,50.8z"/>
				<path class="st1" d="M148,58.9c-0.9,0-1.8-0.1-2.8-0.3c-0.6-0.1-1-0.5-1.2-1.1c-0.3-0.7-0.1-1.7,0.5-2.5
					c2.4-3.2,5.6-4.9,9.4-5.1l0.1,0l0.1,0c0.2,0,0.5,0.1,0.7,0.1c0.6,0.1,1.1,0.2,1.7,0.4c0.5,0.2,0.9,0.5,1.1,0.9
					c0.3,0.7,0,1.4-0.1,1.6c-0.9,1.9-2.4,3.4-4.8,4.8C151.2,58.6,149.7,58.9,148,58.9z M153.8,51.6c-3.3,0.2-6,1.6-8.1,4.4
					c-0.3,0.4-0.3,0.7-0.3,0.9c2.5,0.6,4.6,0.4,6.3-0.6c2.1-1.1,3.4-2.4,4.1-4c0.1-0.1,0.1-0.2,0.1-0.3c0,0,0,0-0.1,0
					c-0.5-0.2-1-0.2-1.5-0.4C154.3,51.7,154.1,51.6,153.8,51.6z"/>
			</g>
			<g>
				<path class="st0" d="M80.2,66.8c3.4,0.1,7,2.2,8.3,6c0.2,0.6,0.5,1.1,0.7,1.6c0.3,1,0,1.6-1.1,1.5c-3.2-0.2-5.8-1.5-7.6-4.1
					c-0.7-1.1-1.2-2.3-1.5-3.5C78.6,67,78.9,66.8,80.2,66.8z"/>
				<path class="st1" d="M88.3,76.8c-0.1,0-0.1,0-0.2,0c-3.6-0.2-6.4-1.7-8.2-4.5c-0.8-1.3-1.3-2.8-1.6-3.8
					c-0.2-0.7-0.3-1.4,0.1-1.9c0.4-0.6,1.2-0.6,2-0.6h0c3.5,0.2,7.6,2.2,9,6.5c0.1,0.3,0.2,0.5,0.3,0.8c0.1,0.3,0.3,0.6,0.4,0.9
					c0.3,1,0.1,1.6-0.2,1.9C89.6,76.4,89.1,76.8,88.3,76.8z M79.6,67.6c0,0.1,0,0.2,0.1,0.4c0.3,0.9,0.7,2.3,1.4,3.3
					c1.5,2.3,3.9,3.6,7,3.8c0.2,0,0.3,0,0.4,0c0,0,0-0.1-0.1-0.4c-0.1-0.2-0.2-0.5-0.3-0.7c-0.1-0.3-0.3-0.6-0.4-0.9
					c-1.2-3.6-4.6-5.3-7.6-5.4C79.9,67.6,79.7,67.6,79.6,67.6z"/>
			</g>
			<g>
				<path class="st0" d="M103.4,114.3c-0.1,0-0.3,0-0.5-0.1c-1.1-0.2-1.5-0.9-0.9-1.8c2-2.6,4.3-4.8,8-4.6c1.1,0.1,2.3,0,3.4,0.2
					c1.1,0.1,1.3,0.6,0.7,1.6c-1.1,2-2.8,3.2-4.8,4c-0.1,0-0.5,0.2-1.1,0.3C106.9,114.2,105.8,114.3,103.4,114.3z"/>
				<path class="st1" d="M103.4,115.1c-0.1,0-0.3,0-0.7-0.1c-0.8-0.1-1.5-0.6-1.7-1.2c-0.2-0.6-0.1-1.3,0.3-1.9
					c2-2.6,4.5-5.2,8.7-4.9c0.4,0,0.8,0,1.2,0c0.7,0,1.5,0,2.2,0.1c0.5,0.1,1.3,0.2,1.6,0.9c0.3,0.7,0,1.4-0.3,1.9
					c-1.1,2-2.9,3.5-5.3,4.4c-0.2,0.1-0.6,0.2-1.1,0.4C107.1,115.1,105.8,115.1,103.4,115.1l0-0.8L103.4,115.1
					C103.4,115.1,103.4,115.1,103.4,115.1z M109.5,108.6c-3.2,0-5.2,2.1-6.9,4.3c-0.1,0.2-0.1,0.3-0.1,0.3c0,0,0.1,0.2,0.5,0.2
					c0.2,0,0.3,0.1,0.4,0.1h0c2.3,0,3.4,0,4.7-0.4c0.5-0.1,0.9-0.3,1-0.3c2.1-0.8,3.5-1.9,4.4-3.6c0.1-0.2,0.1-0.3,0.2-0.4
					c-0.1,0-0.2,0-0.3-0.1c-0.7-0.1-1.3-0.1-2.1-0.1c-0.4,0-0.9,0-1.3,0C109.8,108.6,109.7,108.6,109.5,108.6z"/>
			</g>
			<g>
				<path class="st0" d="M199.6,100.2c1.3-0.1,3.3,0.5,5.1,1.9c1.2,1,1.2,1.5-0.1,2.2c-3.5,1.9-7,2.3-10.6,0.3
					c-0.3-0.2-0.7-0.4-1-0.6c-1.2-0.6-1.3-1.3-0.2-2.1C194.4,100.6,196.5,100.2,199.6,100.2z"/>
				<path class="st1" d="M198.8,106.8c-1.8,0-3.6-0.5-5.3-1.4l-0.3-0.2c-0.2-0.1-0.5-0.3-0.7-0.4c-0.3-0.2-1.3-0.7-1.4-1.6
					c-0.1-1,0.8-1.6,1.1-1.8c1.8-1.4,3.9-1.9,7.4-1.9c1.4-0.1,3.6,0.4,5.6,2.1c0.6,0.5,1.3,1.1,1.2,1.9c-0.1,0.8-0.8,1.3-1.5,1.7
					C202.8,106.2,200.8,106.8,198.8,106.8z M192.7,103c0,0,0.2,0.1,0.5,0.3c0.3,0.1,0.5,0.3,0.8,0.4l0.3,0.1
					c3.1,1.7,6.3,1.6,9.9-0.3c0.3-0.2,0.5-0.3,0.6-0.4c-0.1-0.1-0.2-0.3-0.6-0.5c-1.7-1.4-3.5-1.8-4.5-1.7l-0.1,0
					c-3.1,0-4.9,0.4-6.4,1.6C192.8,102.8,192.7,103,192.7,103z"/>
			</g>
			<g>
				<path class="st0" d="M183.2,83c-0.1,3.9-1.8,6.9-5,9c-1.1,0.7-1.6,0.4-1.9-0.9c-0.6-3.1,0.2-5.9,1.9-8.3c0.8-1.2,2.2-2,3.5-2.8
					c0.6-0.4,1.2,0.1,1.3,0.8C183.1,81.5,183.1,82.2,183.2,83z"/>
				<path class="st1" d="M177.2,93.2c-0.2,0-0.4,0-0.5-0.1c-0.7-0.3-1-1.2-1.1-1.9c-0.6-3.1,0.1-6.1,2.1-8.9c0.8-1.2,2-1.9,3.2-2.7
					l0.5-0.3c0.4-0.3,1-0.3,1.4-0.1c0.5,0.2,1,0.8,1.1,1.5c0.1,0.6,0.1,1.1,0.2,1.6c0,0.2,0,0.4,0,0.7l0,0l0,0
					c-0.1,4.1-1.9,7.3-5.4,9.6C178.2,92.9,177.7,93.2,177.2,93.2z M182,80.6l-0.4,0.3c-1.1,0.7-2.1,1.4-2.8,2.3
					c-1.7,2.4-2.3,5-1.8,7.7c0.1,0.4,0.1,0.6,0.2,0.6c0.1,0,0.2-0.1,0.4-0.2c3.1-2,4.6-4.7,4.7-8.3c0-0.2,0-0.4,0-0.7
					c0-0.5-0.1-1-0.1-1.4C182.2,80.7,182.1,80.6,182,80.6z"/>
			</g>
			<g>
				<path class="st0" d="M79.9,105.9c-2.2,0-4-0.5-5.7-1.6c-1.2-0.7-1.2-1.6,0-2.3c3.5-2.2,7.1-2.5,10.8-0.7
					c0.2,0.1,0.5,0.2,0.7,0.4c1.3,0.9,1.3,1.7-0.1,2.5C83.8,105.4,81.8,105.8,79.9,105.9z"/>
				<path class="st1" d="M79.9,106.8L79.9,106.8c-2.3,0-4.3-0.6-6.1-1.7c-1-0.7-1.3-1.4-1.3-1.9c0-0.5,0.2-1.2,1.2-1.9
					c3.7-2.4,7.6-2.6,11.6-0.8c0.3,0.1,0.6,0.3,0.8,0.5c0.6,0.4,1.3,1.1,1.3,2c0,0.9-0.8,1.5-1.4,1.9
					C84.3,106,82.3,106.6,79.9,106.8L79.9,106.8z M80.1,101c-1.9,0-3.7,0.6-5.5,1.7c-0.4,0.3-0.5,0.5-0.5,0.5c0,0,0.1,0.2,0.5,0.5
					c1.5,1,3.3,1.4,5.2,1.5c2.1-0.1,3.9-0.7,5.4-1.6c0.6-0.4,0.6-0.6,0.6-0.6l0,0c0,0-0.1-0.2-0.6-0.6c-0.2-0.1-0.4-0.2-0.6-0.3
					C83.1,101.3,81.6,101,80.1,101z"/>
			</g>
			<g>
				<path class="st0" d="M168.4,107.8c3.6-0.2,6.1,1.8,8.1,4.5c0.7,1,0.5,1.4-0.6,1.7c-4.2,1.2-8.8-0.5-11.2-4
					c-0.8-1.2-0.7-1.7,0.8-1.9C166.4,107.8,167.4,107.9,168.4,107.8z"/>
				<path class="st1" d="M173.1,115.2c-3.6,0-7-1.8-9.1-4.8c-0.4-0.6-0.8-1.4-0.5-2.1c0.3-0.7,1.1-1,1.8-1.1
					c0.7-0.1,1.4-0.2,2.1-0.2c0.3,0,0.6,0,0.9,0l0,0c4.5-0.2,7.2,2.6,8.8,4.8c0.4,0.5,0.7,1.1,0.5,1.8c-0.2,0.7-0.9,1-1.5,1.1
					C175.1,115.1,174.1,115.2,173.1,115.2z M165.1,109c0,0.1,0.1,0.3,0.3,0.5c2.2,3.3,6.4,4.8,10.3,3.7c0.2-0.1,0.3-0.1,0.4-0.1
					c0-0.1-0.1-0.2-0.2-0.3c-2.2-3-4.5-4.3-7.4-4.2c-0.3,0-0.6,0-0.9,0c-0.7,0-1.3,0-1.9,0.2C165.3,108.9,165.2,108.9,165.1,109z"/>
			</g>
		</g>
		<g>
			<g>
				<path class="st1" d="M179.8,282c-0.3,0-0.5,0-0.8,0c-5.4-0.1-11,0-16.3,0c-2.4,0-4.8,0-7.3,0c-1.8,0-3.2-1.4-3.2-3.2
					c0-1.8,1.4-3.2,3.2-3.2c2.4,0,4.8,0,7.2,0c5.4,0,10.9,0,16.4,0c9.3,0.1,18.2-2.2,26.6-6.8c11.5-6.3,19.8-15.7,24.8-27.9
					c2.6-6.4,3.9-13.2,3.9-20.3c-0.1-48.3-0.1-98.2,0-148.2c0-7.3-1.4-14.2-4.1-20.6c-6.1-14.3-16.4-24.5-30.7-30.4
					c-6.3-2.6-13-3.9-20.1-3.9c-0.1,0-0.1,0-0.2,0c-25.2,0.1-51.2,0.1-79.4,0c-8.5,0-16.6,1.9-24.1,5.7C61.5,30.5,51.8,42.2,47,58
					c-1.2,3.9-1.8,8.1-2,13c0,0.4,0,0.8-0.1,1.2c0,0.4-0.1,0.7-0.1,1.1l0,30.6c0,38.3,0,76.5,0,114.8c0,13.7,4.1,25.7,12.2,35.8
					c8.5,10.6,19.4,17.3,32.3,19.9c3.7,0.8,7.1,1.1,10.4,1.1c5.8,0,11.6,0,17.3,0l7,0c1.8,0,3.2,1.4,3.2,3.2c0,1.8-1.4,3.2-3.2,3.2
					l-7,0c-5.6,0-11.5,0-17.2,0c-3.8,0-7.6-0.4-11.8-1.2c-14.5-3-26.6-10.4-36.1-22.2c-9-11.2-13.6-24.6-13.6-39.8
					c0-38.3,0-76.5,0-114.8l0-30.6c0-0.6,0-1.1,0.1-1.7c0-0.3,0.1-0.6,0.1-0.9c0.2-5.5,1-10.3,2.3-14.7C46.2,38.6,57,25.6,72.9,17.5
					c8.4-4.3,17.5-6.4,26.9-6.4c0.1,0,0.1,0,0.2,0c28.2,0.1,54.2,0.1,79.4,0c0.1,0,0.1,0,0.2,0c7.9,0,15.5,1.5,22.5,4.4
					c15.9,6.6,27.3,17.9,34.1,33.8c3.1,7.1,4.6,14.9,4.6,23.1c-0.1,50-0.1,99.9,0,148.2c0,7.9-1.5,15.6-4.4,22.7
					c-5.6,13.6-14.9,24-27.6,31.1C199.7,279.4,189.9,282,179.8,282z"/>
			</g>
		</g>
	</g>
	<g>
		<path class="st0" d="M192.6,277.1c-6.4,1.6-15.4,3.1-26.2,2.1c-5.5-0.5-10.3-1.5-14.3-2.6c0.7-49.1,1.4-98.1,2.1-147.2
			c1.6,4.1,3.9,10.1,5.9,17.5c2.1,7.7,5,21.2,5.3,41.6c0.2,14.5-0.5,65.9,0,76.9c0.1,1.2,0.2,3.9,2.1,6.3c1.8,2.2,4.3,3.2,8,4
			C179.4,276.6,185.2,277.5,192.6,277.1z"/>
	</g>
	<g>
		<path class="st0" d="M85.2,279.8c6.4,1.6,15.4,3.1,26.2,2.1c5.5-0.5,10.3-1.5,14.3-2.6c-0.7-49.1-1.4-98.1-2.1-147.2
			c-1.6,4.1-3.9,10.1-5.9,17.5c-2.1,7.7-5,21.2-5.3,41.6c-0.2,14.5,0.5,65.9,0,76.9c-0.1,1.2-0.2,3.9-2.1,6.3c-1.8,2.2-4.3,3.2-8,4
			C98.5,279.3,92.7,280.1,85.2,279.8z"/>
	</g>
	<g>
		<g>
			<g>
				<path class="st2" d="M57.1,375.4h-1.4l-1.4-3.1h-6.5l-1.4,3.1h-1.4l5.4-12h1.3L57.1,375.4z M51.1,365l-2.7,6.1h5.4L51.1,365z"/>
			</g>
			<g>
				<path class="st2" d="M72.5,371.8c-0.3,0.7-0.7,1.4-1.3,1.9c-0.6,0.5-1.2,1-2,1.3c-0.8,0.3-1.6,0.5-2.6,0.5h-4.1v-11.9h4.1
					c0.9,0,1.8,0.1,2.6,0.4c0.8,0.3,1.4,0.7,2,1.2c0.6,0.5,1,1.2,1.3,1.9c0.3,0.7,0.5,1.5,0.5,2.3C73,370.2,72.8,371,72.5,371.8z
					 M71.2,367.6c-0.2-0.6-0.6-1.1-1-1.5c-0.4-0.4-0.9-0.8-1.6-1c-0.6-0.2-1.3-0.4-2-0.4h-2.8v9.4h2.8c0.7,0,1.4-0.1,2-0.4
					c0.6-0.2,1.1-0.6,1.6-1c0.4-0.4,0.8-0.9,1-1.5c0.2-0.6,0.3-1.2,0.3-1.8C71.6,368.8,71.5,368.2,71.2,367.6z"/>
			</g>
			<g>
				<path class="st2" d="M87.8,363.5h1.4l-5.1,12H83l-5.1-12h1.5l4.2,10.2L87.8,363.5z"/>
			</g>
			<g>
				<path class="st2" d="M105.8,371.8c-0.3,0.7-0.7,1.4-1.2,2c-0.5,0.6-1.2,1-1.9,1.3c-0.7,0.3-1.6,0.5-2.5,0.5s-1.7-0.2-2.5-0.5
					c-0.7-0.3-1.4-0.8-1.9-1.3c-0.5-0.6-0.9-1.2-1.2-2c-0.3-0.7-0.4-1.5-0.4-2.3s0.1-1.6,0.4-2.3c0.3-0.7,0.7-1.4,1.2-2
					c0.5-0.6,1.2-1,1.9-1.3c0.7-0.3,1.6-0.5,2.5-0.5s1.7,0.2,2.5,0.5c0.7,0.3,1.4,0.8,1.9,1.3c0.5,0.6,0.9,1.2,1.2,2
					c0.3,0.7,0.4,1.5,0.4,2.3C106.2,370.2,106.1,371,105.8,371.8z M104.5,367.5c-0.2-0.6-0.6-1.1-1-1.6c-0.4-0.4-0.9-0.8-1.5-1.1
					c-0.6-0.3-1.2-0.4-1.9-0.4s-1.3,0.1-1.9,0.4c-0.6,0.3-1.1,0.6-1.5,1c-0.4,0.4-0.7,1-1,1.6c-0.2,0.6-0.3,1.2-0.3,1.9
					c0,0.7,0.1,1.3,0.3,1.9c0.2,0.6,0.6,1.1,1,1.6c0.4,0.4,0.9,0.8,1.5,1.1c0.6,0.3,1.2,0.4,1.9,0.4c0.7,0,1.3-0.1,1.9-0.4
					c0.6-0.3,1.1-0.6,1.5-1c0.4-0.4,0.7-1,1-1.6c0.2-0.6,0.3-1.2,0.3-1.9C104.8,368.8,104.7,368.1,104.5,367.5z"/>
			</g>
			<g>
				<path class="st2" d="M121.3,374.3c-0.3,0.3-0.7,0.5-1.1,0.7c-0.4,0.2-0.8,0.3-1.2,0.4c-0.4,0.1-0.9,0.2-1.5,0.2
					c-0.9,0-1.7-0.2-2.4-0.5c-0.7-0.3-1.4-0.7-1.9-1.3c-0.5-0.5-0.9-1.2-1.2-1.9c-0.3-0.7-0.4-1.5-0.4-2.4c0-0.8,0.1-1.6,0.4-2.4
					s0.7-1.4,1.2-2c0.5-0.6,1.2-1,1.9-1.3c0.7-0.3,1.5-0.5,2.4-0.5c0.5,0,1,0,1.5,0.1c0.4,0.1,0.8,0.2,1.2,0.4
					c0.4,0.2,0.7,0.4,1,0.6c0.3,0.2,0.6,0.5,0.9,0.8l-0.9,1c-0.5-0.5-1.1-0.9-1.6-1.2c-0.6-0.3-1.3-0.5-2.1-0.5
					c-0.7,0-1.3,0.1-1.8,0.4c-0.6,0.2-1,0.6-1.5,1c-0.4,0.4-0.7,1-1,1.6c-0.2,0.6-0.3,1.2-0.3,1.9c0,0.7,0.1,1.3,0.3,1.9
					c0.2,0.6,0.6,1.1,1,1.6c0.4,0.4,0.9,0.8,1.5,1c0.6,0.3,1.2,0.4,1.8,0.4c0.8,0,1.5-0.1,2.1-0.4c0.6-0.3,1.2-0.7,1.7-1.3l0.9,0.9
					C122,373.8,121.7,374.1,121.3,374.3z"/>
			</g>
			<g>
				<path class="st2" d="M138.8,375.4h-1.4l-1.4-3.1h-6.5l-1.4,3.1h-1.4l5.4-12h1.3L138.8,375.4z M132.7,365L130,371h5.4L132.7,365z
					"/>
			</g>
			<g>
				<path class="st2" d="M148.6,375.4h-1.3v-10.6h-4v-1.2h9.3v1.2h-4V375.4z"/>
			</g>
			<g>
				<path class="st2" d="M166.8,364.7h-7.2v4.1h6.5v1.2h-6.5v4.2h7.3v1.2h-8.7v-11.9h8.6V364.7z"/>
			</g>
			<g>
				<path class="st2" d="M173.8,367.2c0.1,0.2,0.3,0.4,0.5,0.6c0.2,0.2,0.6,0.4,1,0.5s1,0.3,1.6,0.4c1.3,0.3,2.3,0.7,2.9,1.2
					c0.6,0.5,0.9,1.2,0.9,2.2c0,0.5-0.1,1-0.3,1.4c-0.2,0.4-0.5,0.8-0.8,1.1c-0.4,0.3-0.8,0.5-1.3,0.7c-0.5,0.2-1,0.2-1.6,0.2
					c-1,0-1.8-0.2-2.6-0.5c-0.8-0.3-1.5-0.8-2.2-1.4l0.8-1c0.6,0.6,1.2,1,1.9,1.3c0.6,0.3,1.4,0.4,2.2,0.4c0.8,0,1.4-0.2,1.9-0.6
					c0.5-0.4,0.7-0.9,0.7-1.5c0-0.3,0-0.5-0.1-0.8c-0.1-0.2-0.2-0.4-0.5-0.6c-0.2-0.2-0.5-0.3-0.9-0.5c-0.4-0.1-0.9-0.3-1.5-0.4
					c-0.7-0.1-1.3-0.3-1.8-0.5c-0.5-0.2-0.9-0.4-1.2-0.7c-0.3-0.3-0.6-0.6-0.7-1c-0.2-0.4-0.2-0.8-0.2-1.3c0-0.5,0.1-0.9,0.3-1.3
					c0.2-0.4,0.5-0.7,0.8-1c0.4-0.3,0.8-0.5,1.2-0.7c0.5-0.2,1-0.2,1.6-0.2c0.9,0,1.6,0.1,2.3,0.4c0.7,0.2,1.3,0.6,1.9,1.1l-0.8,1
					c-0.6-0.5-1.1-0.8-1.7-1c-0.6-0.2-1.1-0.3-1.8-0.3c-0.4,0-0.7,0.1-1,0.2c-0.3,0.1-0.6,0.2-0.8,0.4c-0.2,0.2-0.4,0.4-0.5,0.6
					c-0.1,0.2-0.2,0.5-0.2,0.8C173.7,366.7,173.7,367,173.8,367.2z"/>
			</g>
			<g>
				<path class="st2" d="M194.7,363.5h1.3v10.6h6.7v1.2h-8V363.5z"/>
			</g>
			<g>
				<path class="st2" d="M208.2,363.5h1.3v10.6h6.7v1.2h-8V363.5z"/>
			</g>
			<g>
				<path class="st2" d="M230.3,369c-0.2,0.5-0.6,0.9-1,1.2c-0.4,0.3-0.9,0.6-1.5,0.7c-0.6,0.2-1.2,0.2-1.8,0.2h-2.9v4.2h-1.3v-11.9
					h4.4c0.7,0,1.3,0.1,1.8,0.3c0.5,0.2,1,0.4,1.4,0.7c0.4,0.3,0.7,0.7,0.9,1.2c0.2,0.5,0.3,1,0.3,1.6
					C230.7,367.9,230.6,368.5,230.3,369z M228.5,365.4c-0.6-0.4-1.4-0.7-2.3-0.7h-3v5.2h2.9c0.5,0,0.9-0.1,1.3-0.2
					c0.4-0.1,0.7-0.3,1-0.5c0.3-0.2,0.5-0.5,0.7-0.8c0.2-0.3,0.2-0.7,0.2-1.1C229.3,366.5,229,365.8,228.5,365.4z"/>
			</g>
		</g>
		<g>
			<g>
				<path class="st2" d="M117.7,311.9c6.7,0,12,2,15.9,6c3.2,3.3,4.8,7.3,4.8,11.9c0,3.3-0.8,6.2-2.5,9c-1.7,2.8-4.1,4.9-7.1,6.5
					c-3.2,1.7-7,2.5-11.2,2.5H88.1v-35.9H117.7z M115.2,340.7c4.6,0,8.1-1.1,10.7-3.3c2.3-1.9,3.4-4.5,3.4-7.6
					c0-3.5-1.5-6.2-4.4-8.2c-2.6-1.7-5.9-2.6-9.9-2.6H97.2v21.7H115.2z"/>
			</g>
			<g>
				<path class="st2" d="M144.9,311.9H177c5,0,8.8,1.2,11.4,3.7c2.1,2,3.2,4.4,3.2,7.5c0,3.6-1.4,6.4-4.3,8.4
					c-2,1.5-4.7,2.4-7.9,2.9l13.4,13.4h-12.9l-12-13.3h-14v13.3h-9V311.9z M175.9,327.9c2.1,0,3.7-0.5,4.8-1.6
					c0.9-0.9,1.4-1.9,1.4-3.3c0-1.3-0.6-2.4-1.8-3.3c-1.1-0.8-2.6-1.1-4.4-1.1h-21.9v9.3H175.9z"/>
			</g>
			<g>
				<polygon class="st2" points="27.8,347.8 51.3,311.9 60.6,311.9 84.1,347.8 72.8,347.8 55.9,318.9 38.7,347.8 				"/>
			</g>
			<g>
				<polygon class="st2" points="194.8,347.8 218.3,311.9 227.6,311.9 251.1,347.8 239.8,347.8 222.9,318.9 205.6,347.8 				"/>
			</g>
		</g>
	</g>
</g>
</svg>
