<?xml version="1.0" encoding="utf-8"?>
<!-- Generator: Adobe Illustrator 24.3.0, SVG Export Plug-In . SVG Version: 6.00 Build 0)  -->
<svg version="1.1" id="Layer_1" xmlns="http://www.w3.org/2000/svg" xmlns:xlink="http://www.w3.org/1999/xlink" x="0px" y="0px"
	 viewBox="0 0 359.1 142.8" style="enable-background:new 0 0 359.1 142.8;" xml:space="preserve">
<style type="text/css">
	.st0{fill:#FFFFFF;}
	.st1{fill:#CEA13C;}
</style>
<path class="st0" d="M149,99.3h-1.3l-1.3-2.6h-5.6l-1.3,2.6h-1.3l4.7-10.8h1.3L149,99.3z M143.8,90.2l-2.6,5.2h4.7L143.8,90.2z"/>
<path class="st0" d="M162.8,96.3c-0.4,0.4-0.9,1.3-1.3,1.7c-0.4,0.4-1.3,0.9-1.7,1.3c-0.9,0.4-1.3,0.4-2.2,0.4h-3.9V89.4h3.9
	c0.9,0,1.7,0,2.2,0.4c0.9,0.4,1.3,0.4,1.7,1.3c0.4,0.4,0.9,0.9,1.3,1.7s0.4,1.3,0.4,2.2C163.2,95,163.2,95.4,162.8,96.3z
	 M161.5,92.4c0-0.4-0.4-0.9-0.9-1.3c-0.4-0.4-0.9-0.9-1.3-0.9c-0.4-0.4-1.3-0.4-1.7-0.4H155V98h2.6c0.4,0,1.3,0,1.7-0.4
	c0.4,0,0.9-0.4,1.3-0.9c0.4-0.4,0.9-0.9,0.9-1.3c0-0.4,0.4-0.9,0.4-1.7C161.9,93.7,161.9,92.8,161.5,92.4z"/>
<path class="st0" d="M176.2,88.9h1.3l-4.7,10.8h-0.9l-4.7-10.8h1.3l3.9,9.1L176.2,88.9z"/>
<path class="st0" d="M192.6,96.3c-0.4,0.4-0.4,1.3-1.3,1.7c-0.4,0.4-0.9,0.9-1.7,1.3c-0.4,0-1.3,0.4-2.2,0.4s-1.7,0-2.2-0.4
	c-0.4-0.4-1.3-0.9-1.7-1.3c-0.4-0.4-0.9-1.3-1.3-1.7c-0.4-0.9-0.4-1.3-0.4-2.2c0-1.3,0.4-2.6,1.3-3.9c0.4-0.4,0.9-0.9,1.7-1.3
	c0.9-0.4,1.3-0.4,2.2-0.4s1.3,0,2.2,0.4c0.4,0.4,1.3,0.9,1.7,1.3c0.4,0.4,0.9,1.3,1.3,1.7c0.4,0.9,0.4,1.3,0.4,2.2
	C192.6,95,192.6,95.4,192.6,96.3z M191.3,92.4c0-0.4-0.4-0.9-0.9-1.3c-0.4-0.4-0.9-0.9-1.3-0.9c-1.7-0.9-3.5-0.4-4.7,0.9
	c-0.4,0.4-0.9,0.9-0.9,1.3c0,0.4-0.4,0.9-0.4,1.7c0,0.4,0,1.3,0.4,1.7c0,0.4,0.4,0.9,0.9,1.3c0.4,0.4,0.9,0.9,1.3,0.9
	c0.9,0.4,2.2,0.4,3.5,0c0.4-0.4,0.9-0.4,1.3-0.9c0.4-0.4,0.9-0.9,0.9-1.3C191.7,94.6,191.7,93.3,191.3,92.4L191.3,92.4z"/>
<path class="st0" d="M206.4,98.4c-0.4,0.4-0.4,0.4-0.9,0.4c-0.4,0-0.9,0.4-1.3,0.4s-0.9,0-1.3,0c-0.9,0-1.3,0-2.2-0.4
	c-0.4-0.4-1.3-0.9-1.7-1.3c-0.4-0.4-0.9-1.3-1.3-1.7c-0.4-0.9-0.4-1.3-0.4-2.2c0-0.9,0-1.3,0.4-2.2c0.4-0.4,0.4-1.3,1.3-1.7
	c0.4-0.4,0.9-0.9,1.7-1.3c0.9-0.4,1.3-0.4,2.2-0.4c0.4,0,0.9,0,1.3,0s0.9,0,0.9,0.4c0.4,0,0.4,0.4,0.9,0.4c0.4,0,0.4,0.4,0.9,0.9
	l-0.9,1.3c-0.4-0.4-0.9-0.9-1.3-0.9c-0.4-0.4-1.3-0.4-1.7-0.4c-0.4,0-1.3,0-1.7,0.4c-0.4,0.4-0.9,0.4-1.3,0.9
	c-0.4,0.4-0.9,0.9-0.9,1.3c0,0.4-0.4,1.3-0.4,1.7c0,0.4,0,1.3,0.4,1.7c0.4,0.9,1.3,1.7,2.2,2.2c0.4,0.4,0.9,0.4,1.7,0.4
	s1.3,0,1.7-0.4s1.3-0.9,1.7-1.3l0.9,0.9C206.8,98,206.4,98,206.4,98.4z"/>
<path class="st0" d="M221.5,99.3h-1.3l-1.3-2.6h-5.6l-1.3,2.6h-1.3l4.7-10.8h1.3L221.5,99.3z M216.3,90.2l-2.6,5.2h4.7L216.3,90.2z"
	/>
<path class="st0" d="M230.6,99.3h-1.3v-9.5h-3.5v-1.3h8.2v1.3h-3.5C230.6,89.8,230.6,99.3,230.6,99.3z"/>
<path class="st0" d="M246.5,89.8h-6.5v3.5h5.6v0.9h-5.6V98h6.5v0.9h-7.8V88.5h7.3v1.3H246.5z"/>
<path class="st0" d="M253,92c0,0.4,0.4,0.4,0.4,0.4c0.4,0,0.4,0.4,0.9,0.4c0.4,0,0.9,0.4,1.3,0.4c0.9,0,1.7,0.4,2.6,1.3
	c0.4,0.4,0.9,1.3,0.9,1.7s0,0.9-0.4,1.3c0,0.4-0.4,0.9-0.9,0.9c-0.4,0.4-0.9,0.4-1.3,0.4c-0.4,0-0.9,0-1.3,0c-0.9,0-1.7,0-2.2-0.4
	c-0.9-0.4-1.3-0.9-2.2-1.3l0.9-0.9c0.4,0.4,0.9,0.9,1.7,1.3c0.4,0.4,1.3,0.4,2.2,0.4c0.4,0,1.3,0,1.7-0.4c0.4-0.4,0.4-0.9,0.4-1.3
	c0-0.4,0-0.4,0-0.9l-0.4-0.4c-0.4,0-0.4-0.4-0.9-0.4c-0.4,0-0.9-0.4-1.3-0.4s-1.3-0.4-1.7-0.4c-0.4,0-0.9-0.4-1.3-0.4
	c-0.4-0.4-0.4-0.4-0.9-0.9c0-0.4-0.4-0.9,0-1.3c0-0.4,0-0.9,0.4-1.3c0-0.4,0.4-0.9,0.9-0.9c0.4-0.4,0.9-0.4,1.3-0.4
	c0.4,0,0.9-0.4,1.3,0c0.9,0,1.3,0,2.2,0.4c0.4,0.4,1.3,0.4,1.7,0.9l-1.3,1.3c-0.4-0.4-0.9-0.9-1.3-0.9c-0.4,0-0.9-0.4-1.7-0.4
	c-0.4,0-0.4,0-0.9,0c-0.4,0-0.4,0-0.9,0.4l-0.4,0.4c0,0,0,0.4,0,0.9C252.6,92,252.6,92,253,92z"/>
<path class="st0" d="M271.6,88.9h1.3v9.5h6v1.3h-7.3V88.9z"/>
<path class="st0" d="M283.6,88.9h1.3v9.5h6v1.3h-7.3V88.9z"/>
<path class="st0" d="M303.1,93.7c-0.4,0.4-0.4,0.9-0.9,1.3c-0.4,0.4-0.9,0.4-1.3,0.9c-0.4,0-1.3,0.4-1.7,0h-2.6v3.9h-1.3V89.4h3.9
	c0.4,0,1.3,0,1.7,0.4c0.4,0,0.9,0.4,1.3,0.9c0.4,0.4,0.4,0.4,0.9,0.9c0,0.4,0.4,0.9,0.4,1.3C303.5,92.8,303.5,93.3,303.1,93.7z
	 M301.3,90.2c-0.4-0.4-1.3-0.4-2.2-0.4h-2.6v4.7h2.6c0.4,0,0.9,0,1.3,0c0.4,0,0.9-0.4,0.9-0.4c0.4,0,0.4-0.4,0.4-0.9s0-0.4,0-0.9
	C302.2,91.5,301.8,91.1,301.3,90.2L301.3,90.2z"/>
<path class="st0" d="M201.6,43.2c6,0,10.8,1.7,14.2,5.2c3,2.6,4.3,6.5,4.3,10.8c0,3-0.9,5.6-2.2,7.8c-1.7,2.6-3.9,4.3-6.5,5.6
	c-3,1.7-6.5,2.2-9.9,2.2h-26.3V43.2H201.6z M199.5,68.7c3.5,0,6.9-0.9,9.5-3c2.2-1.7,3-4.3,3-6.9c0-3-1.3-5.6-3.9-7.3
	c-2.6-1.7-5.6-2.6-8.6-2.2h-16v19.4H199.5z"/>
<path class="st0" d="M225.8,43.2h28.5c4.3,0,7.8,0.9,9.9,3.5c1.7,1.7,3,4.3,2.6,6.5c0,3-1.3,5.6-3.9,7.3c-2.2,1.3-4.7,2.2-6.9,2.6
	l12.1,12.1h-11.7l-10.8-11.7h-12.5v11.7h-8.2L225.8,43.2z M253.4,57c1.7,0,3-0.4,4.3-1.3c0.9-0.9,1.3-1.7,1.3-3c0-1.3-0.4-2.2-1.7-3
	s-2.6-0.9-3.9-0.9H234V57H253.4z"/>
<polygon class="st0" points="121.8,74.7 142.5,43.2 150.7,43.2 171.9,74.7 161.5,74.7 146.4,49.2 131.3,74.7 "/>
<polygon class="st0" points="270.3,74.7 291,43.2 299.2,43.2 320.3,74.7 310,74.7 294.9,49.2 279.8,74.7 "/>
<path class="st0" d="M149,99.3h-1.3l-1.3-2.6h-5.6l-1.3,2.6h-1.3l4.7-10.8h1.3L149,99.3z M143.8,90.2l-2.6,5.2h4.7L143.8,90.2z"/>
<path class="st0" d="M162.8,96.3c-0.4,0.4-0.9,1.3-1.3,1.7c-0.4,0.4-1.3,0.9-1.7,1.3c-0.9,0.4-1.3,0.4-2.2,0.4h-3.9V89.4h3.9
	c0.9,0,1.7,0,2.2,0.4c0.9,0.4,1.3,0.4,1.7,1.3c0.4,0.4,0.9,0.9,1.3,1.7s0.4,1.3,0.4,2.2C163.2,95,163.2,95.4,162.8,96.3z
	 M161.5,92.4c0-0.4-0.4-0.9-0.9-1.3c-0.4-0.4-0.9-0.9-1.3-0.9c-0.4-0.4-1.3-0.4-1.7-0.4H155V98h2.6c0.4,0,1.3,0,1.7-0.4
	c0.4,0,0.9-0.4,1.3-0.9c0.4-0.4,0.9-0.9,0.9-1.3c0-0.4,0.4-0.9,0.4-1.7C161.9,93.7,161.9,92.8,161.5,92.4z"/>
<path class="st0" d="M176.2,88.9h1.3l-4.7,10.8h-0.9l-4.7-10.8h1.3l3.9,9.1L176.2,88.9z"/>
<path class="st0" d="M192.6,96.3c-0.4,0.4-0.4,1.3-1.3,1.7c-0.4,0.4-0.9,0.9-1.7,1.3c-0.4,0-1.3,0.4-2.2,0.4s-1.7,0-2.2-0.4
	c-0.4-0.4-1.3-0.9-1.7-1.3c-0.4-0.4-0.9-1.3-1.3-1.7c-0.4-0.9-0.4-1.3-0.4-2.2c0-1.3,0.4-2.6,1.3-3.9c0.4-0.4,0.9-0.9,1.7-1.3
	c0.9-0.4,1.3-0.4,2.2-0.4s1.3,0,2.2,0.4c0.4,0.4,1.3,0.9,1.7,1.3c0.4,0.4,0.9,1.3,1.3,1.7c0.4,0.9,0.4,1.3,0.4,2.2
	C192.6,95,192.6,95.4,192.6,96.3z M191.3,92.4c0-0.4-0.4-0.9-0.9-1.3c-0.4-0.4-0.9-0.9-1.3-0.9c-1.7-0.9-3.5-0.4-4.7,0.9
	c-0.4,0.4-0.9,0.9-0.9,1.3c0,0.4-0.4,0.9-0.4,1.7c0,0.4,0,1.3,0.4,1.7c0,0.4,0.4,0.9,0.9,1.3c0.4,0.4,0.9,0.9,1.3,0.9
	c0.9,0.4,2.2,0.4,3.5,0c0.4-0.4,0.9-0.4,1.3-0.9c0.4-0.4,0.9-0.9,0.9-1.3C191.7,94.6,191.7,93.3,191.3,92.4L191.3,92.4z"/>
<path class="st0" d="M206.4,98.4c-0.4,0.4-0.4,0.4-0.9,0.4c-0.4,0-0.9,0.4-1.3,0.4s-0.9,0-1.3,0c-0.9,0-1.3,0-2.2-0.4
	c-0.4-0.4-1.3-0.9-1.7-1.3c-0.4-0.4-0.9-1.3-1.3-1.7c-0.4-0.9-0.4-1.3-0.4-2.2c0-0.9,0-1.3,0.4-2.2c0.4-0.4,0.4-1.3,1.3-1.7
	c0.4-0.4,0.9-0.9,1.7-1.3c0.9-0.4,1.3-0.4,2.2-0.4c0.4,0,0.9,0,1.3,0s0.9,0,0.9,0.4c0.4,0,0.4,0.4,0.9,0.4c0.4,0,0.4,0.4,0.9,0.9
	l-0.9,1.3c-0.4-0.4-0.9-0.9-1.3-0.9c-0.4-0.4-1.3-0.4-1.7-0.4c-0.4,0-1.3,0-1.7,0.4c-0.4,0.4-0.9,0.4-1.3,0.9
	c-0.4,0.4-0.9,0.9-0.9,1.3c0,0.4-0.4,1.3-0.4,1.7c0,0.4,0,1.3,0.4,1.7c0.4,0.9,1.3,1.7,2.2,2.2c0.4,0.4,0.9,0.4,1.7,0.4
	s1.3,0,1.7-0.4s1.3-0.9,1.7-1.3l0.9,0.9C206.8,98,206.4,98,206.4,98.4z"/>
<path class="st0" d="M221.5,99.3h-1.3l-1.3-2.6h-5.6l-1.3,2.6h-1.3l4.7-10.8h1.3L221.5,99.3z M216.3,90.2l-2.6,5.2h4.7L216.3,90.2z"
	/>
<path class="st0" d="M230.6,99.3h-1.3v-9.5h-3.5v-1.3h8.2v1.3h-3.5C230.6,89.8,230.6,99.3,230.6,99.3z"/>
<path class="st0" d="M246.5,89.8h-6.5v3.5h5.6v0.9h-5.6V98h6.5v0.9h-7.8V88.5h7.3v1.3H246.5z"/>
<path class="st0" d="M253,92c0,0.4,0.4,0.4,0.4,0.4c0.4,0,0.4,0.4,0.9,0.4c0.4,0,0.9,0.4,1.3,0.4c0.9,0,1.7,0.4,2.6,1.3
	c0.4,0.4,0.9,1.3,0.9,1.7s0,0.9-0.4,1.3c0,0.4-0.4,0.9-0.9,0.9c-0.4,0.4-0.9,0.4-1.3,0.4c-0.4,0-0.9,0-1.3,0c-0.9,0-1.7,0-2.2-0.4
	c-0.9-0.4-1.3-0.9-2.2-1.3l0.9-0.9c0.4,0.4,0.9,0.9,1.7,1.3c0.4,0.4,1.3,0.4,2.2,0.4c0.4,0,1.3,0,1.7-0.4c0.4-0.4,0.4-0.9,0.4-1.3
	c0-0.4,0-0.4,0-0.9l-0.4-0.4c-0.4,0-0.4-0.4-0.9-0.4c-0.4,0-0.9-0.4-1.3-0.4s-1.3-0.4-1.7-0.4c-0.4,0-0.9-0.4-1.3-0.4
	c-0.4-0.4-0.4-0.4-0.9-0.9c0-0.4-0.4-0.9,0-1.3c0-0.4,0-0.9,0.4-1.3c0-0.4,0.4-0.9,0.9-0.9c0.4-0.4,0.9-0.4,1.3-0.4
	c0.4,0,0.9-0.4,1.3,0c0.9,0,1.3,0,2.2,0.4c0.4,0.4,1.3,0.4,1.7,0.9l-1.3,1.3c-0.4-0.4-0.9-0.9-1.3-0.9c-0.4,0-0.9-0.4-1.7-0.4
	c-0.4,0-0.4,0-0.9,0c-0.4,0-0.4,0-0.9,0.4l-0.4,0.4c0,0,0,0.4,0,0.9C252.6,92,252.6,92,253,92z"/>
<path class="st0" d="M271.6,88.9h1.3v9.5h6v1.3h-7.3V88.9z"/>
<path class="st0" d="M283.6,88.9h1.3v9.5h6v1.3h-7.3V88.9z"/>
<path class="st0" d="M303.1,93.7c-0.4,0.4-0.4,0.9-0.9,1.3c-0.4,0.4-0.9,0.4-1.3,0.9c-0.4,0-1.3,0.4-1.7,0h-2.6v3.9h-1.3V89.4h3.9
	c0.4,0,1.3,0,1.7,0.4c0.4,0,0.9,0.4,1.3,0.9c0.4,0.4,0.4,0.4,0.9,0.9c0,0.4,0.4,0.9,0.4,1.3C303.5,92.8,303.5,93.3,303.1,93.7z
	 M301.3,90.2c-0.4-0.4-1.3-0.4-2.2-0.4h-2.6v4.7h2.6c0.4,0,0.9,0,1.3,0c0.4,0,0.9-0.4,0.9-0.4c0.4,0,0.4-0.4,0.4-0.9s0-0.4,0-0.9
	C302.2,91.5,301.8,91.1,301.3,90.2L301.3,90.2z"/>
<path class="st1" d="M115.8,101C115.8,101,115.8,101.5,115.8,101L115.8,101c0,0.9,0,1.3,0,2.2c0,0.9-0.4,1.7-0.4,2.6
	c-0.4,1.7-0.9,3-1.7,4.7c-2.2,4.3-5.6,7.8-9.9,9.9c-1.7,0.9-3.5,1.7-5.2,2.2c-0.9,0-1.3,0.4-2.2,0.4s-1.3,0-2.2,0.4
	c-0.4,0-1.3,0-1.7,0h-9.1c-0.4,0-0.9-0.4-1.3-0.9c0-0.4-0.4-0.9-0.4-0.9c0-0.9,0-1.3,0-2.2v-3c0-0.4,0-0.9,0-1.7v-2.6
	c0-1.3,0-2.6,0-3.9c0-0.9,0-1.7,0-2.6c0-2.2,0-4.7,0-6.9c0-2.2,0-4.7,0-6.9c0-0.9,0-1.7,0-2.6v-2.6c0-1.7,0-3.5,0-4.7c0,0,0,0,0-0.4
	v-4.7c0-1.7,0-3,0-4.7v-0.4v-3.9c0-0.4,0-1.3,0-1.7l0,0c-0.4-1.3-0.4-2.2-0.9-3.5c0-0.4,0-1.3,0-1.7c0.4-2.6,1.7-5.2,3.5-7.3
	l-0.4-1.3c0.9-1.3,1.3-2.2,1.7-3.5c0.4-0.4,0.4-0.9,0.9-1.3c0.4-1.3,1.3-2.2,2.2-3.5c1.3-1.7,2.6-3,4.3-3.9c0.9-0.4,2.2-0.9,3-1.3
	h0.4c0,0,0.4,0,0.4-0.4c0.9,0,1.7,0.4,1.7,1.3l0,0c0,0.4,0,1.3-0.9,1.3c-0.4,0-0.4,0-0.9,0.4h-0.4c-0.9,0.4-2.2,0.9-3,1.3
	c-0.4,0.4-0.9,0.9-1.3,1.3l0,0c-0.4,0.4-0.4,0.9-0.9,0.9c-0.4,0.9-0.9,1.3-1.7,2.2c-0.4,0.4-0.9,1.3-0.9,1.7
	c-0.4,0.4-0.9,1.3-0.9,1.7V51l0,0h0.4h0.4h0.9h0.9h0.9H92l2.2-0.4l0,0c0.9-0.4,1.3-0.4,2.2-1.3l1.3-0.4l0,0c0.4-0.4,0.4-0.9,0.9-1.3
	l0.4-0.9l0.4-0.4c0.4-0.4,0.9-0.4,0.9-0.4h0.4c0.4,0,0.9,0.4,0.9,0.9v0.4v0.4c-0.4,0.9-0.9,1.7-1.3,2.6c-0.4,0.4-0.9,1.3-1.7,1.7
	c0,0-0.4,0.4-0.9,0.4c-0.4,0.4-0.9,0.4-1.7,0.9c-0.4,0-0.4,0.4-0.9,0.4s-0.4,0-0.9,0l0,0l0.4,0.4c0.4,0.4,0.9,0.9,0.9,1.3
	c0.4,0.4,0.4,0.9,0.9,1.3V57c0,0.4,0,0.9-0.4,0.9c-0.4,0.4-0.9,0.4-1.3,0.4c0,0-0.4,0-0.4-0.4l-0.4-0.4l-0.4-0.9l0,0
	c-0.4-0.4-0.4-0.9-0.9-0.9l0,0c-0.4-0.4-1.3-0.4-1.7-0.9c-0.4,0-0.9,0-1.3-0.4H89c-0.9,0-1.3,0-2.2,0.4c-0.9,0.4-1.3,0.4-2.2,0.9
	c0,0,0,0-0.4,0L83.4,57c-0.4,0.9-0.9,1.7-0.9,2.6c0,0.4,0,0.9,0,1.3c0,0.9,0,1.7,0,2.6c0,0.4,0,0.4,0,0.4c0.4,1.3,0.9,3,1.7,4.3
	c0.4,1.7,0.9,3.5,1.3,5.6c0,0.9,0.4,1.7,0.4,2.6c0,0.9,0.4,1.7,0.4,2.6s0,1.7,0.4,2.6c0,1.7,0,3,0,4.7c0,1.7,0,3.5,0,5.2
	c0,2.2,0,4.3,0,6s0,4.3,0,6.5c0,0.9,0,1.7,0,2.6c0,0.9,0,2.2,0,3.5c0,1.7,0,3.5,0,4.7c0,0.4,0,0.9,0,1.3c0,0.4,0,0.9,0.4,1.3
	c0.4,0.4,0.9,0.9,1.3,1.3c0.4,0,0.4,0.4,0.9,0.4h0.4c0.4,0,0.9,0,1.3,0h2.2c0.4,0,1.3,0,1.7,0s0.9,0,1.7-0.4
	c1.3-0.4,2.6-0.4,3.9-1.3c2.2-0.9,4.3-2.2,6.5-3.9c1.7-1.7,3.5-3.9,4.7-6c0.9-1.3,1.3-3,1.7-4.7c0-0.9,0.4-1.7,0.4-2.6
	c0-0.9,0-1.7,0-3c0-2.2,0-3.9,0-6v-3.9c0-2.2,0-4.7,0-6.9V53.5c0-1.7,0-3.5,0-4.7v-3.9c0-0.4,0-1.3,0-1.7s0-1.3,0-1.7
	c0-2.2-0.4-4.3-1.3-6.5c-0.9-1.7-1.7-3.5-3-5.2c-1.7-2.2-3.9-4.3-6.5-5.6c-1.3-0.9-3-1.3-4.3-1.7c-1.3-0.4-2.2-0.4-3-0.4
	c-0.4,0-0.9,0-1.3,0s-1.3,0-1.7,0H69.6h-6.9c-0.9,0-1.7,0-2.2,0h-1.3c-0.9-0.4-1.3,0-1.7,0c-1.3,0.4-3,0.9-4.3,1.3
	c-1.7,0.9-3.5,2.2-5.2,3.5c-1.7,1.7-3.5,3.5-4.3,5.6c-0.9,1.7-1.7,3.5-2.2,5.6c0,0.4-0.4,1.3-0.4,1.7c0,0.9-0.4,1.7-0.4,2.6l0,0
	c0,0.4,0,0.9,0,1.3v50.9c0,1.3,0,2.6,0,4.3c0,0.9,0,1.7,0,2.6c0.4,2.2,0.9,4.3,1.7,6.5c0.9,1.7,1.7,3.5,3,5.2c1.3,1.7,3,3,4.7,4.3
	c1.7,1.3,3.9,2.2,6,2.6c0.9,0,1.7,0.4,2.2,0.4s0.9,0,1.3,0s1.3,0,2.2,0h3.5c0.4-0.4,0.4-0.4,0.9-0.9s0.4-0.9,0.4-1.3s0-0.9,0-1.3
	c0-1.3,0-2.6,0-3.5c0-1.3,0-2.6,0-3.9c0-1.7,0-3.5,0-5.2c0-1.3,0-3,0-4.3c0-1.7,0-3.5,0-5.2c0-1.3,0-2.6,0-3.9s0-3,0-4.3
	c0-0.9,0-1.3,0-2.2v-1.3c0-0.4,0-0.9,0-1.3c0-0.4,0-0.9,0-1.7s0-0.9,0-1.3c0-0.9,0.4-1.3,0.4-2.2c0.4-1.3,0.4-2.6,0.9-3.9
	c0.4-2.2,1.3-4.3,2.2-6.5l0,0l0,0l0,0c0,0,0-0.9,0-2.2c0,0,0,0,0-0.9s0-1.7,0-2.6c0-0.4,0-0.4,0-0.9l0,0c0-0.9-0.4-1.3-0.9-2.2
	c0.4-1.3,0-1.7-0.4-2.2c-0.4,0-0.9-0.4-1.3-0.4s-1.3-0.4-1.7-0.4l0,0c-0.9,0-1.7,0-2.2,0c-0.4,0-0.9,0.4-1.3,0.4s-0.4,0.4-0.9,0.4
	c-0.4,0.4-0.4,0.4-0.9,0.9l-0.4,0.9l-0.4,0.4c0,0.4-0.4,0.4-0.9,0.4s-0.9,0-0.9,0s-0.4,0-0.4-0.4c-0.4,0-0.4-0.4-0.4-0.9
	c0-0.4,0-0.4,0-0.9l0,0l0.4-0.9c0.9-0.4,0.9-0.9,1.3-1.3l0.4-0.4l0,0l0,0c-1.3,0-2.6-0.4-3.9-1.3c-1.3-1.3-2.6-2.6-3.5-4.3v-0.4
	c0-0.4,0-0.4,0-0.9s0-0.4,0.4-0.4c0-0.4,0.4-0.4,0.9-0.4s0.9,0,1.3,0.4c0,0,0,0.4,0.4,0.4c0,0,0,0.4,0.4,0.4c0,0.4,0.4,0.9,0.9,1.3
	c0.4,0.9,0.9,1.3,1.7,1.7l0,0c0.4,0.4,0.4,0.4,0.9,0.9c0.4,0,0.4,0,0.9,0.4c0.4,0,0.9,0.4,1.3,0.4c0.4,0,0.9,0,1.3,0h1.3h0.9h0.9
	h0.9l0,0h0.4l0,0l0,0c0,0,0,0,0-0.4c-1.3-0.4-1.7-0.9-2.2-1.3c-0.4-0.9-1.3-1.3-1.7-2.2c-0.9-0.4-0.9-0.9-1.3-1.3
	c-0.9-0.9-1.3-1.7-1.7-3c-0.4-0.9-0.9-1.7-1.3-3c0-0.9-0.4-1.3-0.4-2.2s0-1.3,0-2.2c0-0.4,0-0.4,0-0.9V35c0,0,0-0.4,0.4-0.4
	c0.4-0.4,0.9-0.4,1.7-0.4c0,0.4,0.4,0.9,0.4,0.9c0,0.4,0,0.9,0,1.3c0,0.4,0,0.9,0,1.3c0,0.9,0,1.3,0.4,2.2s0.4,1.7,0.9,2.6
	c0.9,0.9,1.3,1.3,1.7,2.2c0.4,0.4,0.4,0.9,0.9,0.9c1.3,1.7,3,3,4.3,4.7c0.9,1.3,1.7,2.2,2.6,3.5c0.4,0.9,1.3,2.2,1.7,3.5
	c0.4,0.9,0.9,1.7,0.9,3c0,0.9,0,1.7,0,2.6c0,0.9,0,1.3,0,2.2c0,0.4,0,0.4,0,0.9v1.3c0,0.4,0,1.3,0,1.7l0,0v2.6c0,1.3,0,3,0,4.3v4.3
	c0,1.7,0,3.5,0,4.7c0,2.2,0,3.9,0,6c0,2.2,0,3.5,0,5.6c0,0.4,0,0.9,0,0.9c0,1.7,0,3.5,0,5.2c0,0.4,0,0.9,0,1.3c0,0.9,0,1.7,0,2.6
	s0,1.7,0,2.6l0,0c0,0.9,0,1.7,0,3c0,0.4,0,0.9,0,1.7c0,0.4,0,0.4,0,0.9c0,0.9,0,1.7,0,2.6c0,0.4,0,0.9,0,1.7l0,0c0,0.9,0,1.7,0,2.6
	c0,0.4,0,0.9,0,1.3v0.4c0,0.4-0.4,0.9-0.9,0.9c0,0,0,0-0.4,0h-6c-0.4,0-0.9,0-1.3,0l0,0h-3l0,0h-0.9h-1.3c-0.4,0-0.9,0-1.7,0
	s-1.7-0.4-2.6-0.4c-2.6-0.9-4.7-1.7-6.9-3.5c-2.6-1.7-4.7-3.9-6.5-6.5c-1.7-2.6-3-5.6-3.5-8.6c0-0.9-0.4-1.7-0.4-2.2
	c0-1.3-0.4-2.2-0.4-2.6V42.8l0,0v-0.4c0-0.9,0-2.2,0.4-3c0-0.9,0.4-1.3,0.4-2.2c0.4-1.7,1.3-3.5,2.2-5.2c1.3-2.2,2.6-4.3,4.3-6
	c1.3-1.3,3-2.6,4.7-3.5c2.6-1.7,5.6-2.6,8.2-3c0.9,0,1.7-0.4,2.2-0.4h0.4h0.4h5.2H67h19.9h0.4h6h0.4c0.4,0,0.4,0,0.9,0
	c0.9,0,1.3,0,2.2,0.4c0.9,0,1.7,0.4,2.6,0.9c1.7,0.4,3.5,1.3,4.7,2.2c2.6,1.3,4.7,3,6.5,5.2c1.3,1.3,2.2,3,3,4.7
	c0.9,1.3,1.3,2.6,1.7,4.3c0.4,0.9,0.4,1.7,0.9,3c0,0.4,0,0.9,0,1.3c0,0,0,0,0,0.4v0.4V101H115.8z"/>
<path class="st1" d="M71.7,41.9L71.7,41.9l0.4-0.4c0.4-0.4,0.9-0.9,0.9-1.7c0.4-0.9,0.9-1.7,1.3-2.2c0.4-0.9,0.9-1.7,1.3-2.6
	s0.4-1.7,0.9-2.6c0-0.9,0-1.3,0-2.2c0-0.9,0-1.7,0-2.2L76,26.4l0,0c0,0,0-0.4,0.4-0.4c0.4-0.4,0.9-0.4,1.3-0.4s0.9,0.4,1.3,0.9v0.4
	c0,0.4,0,0.9,0.4,1.3c0,0.9,0,1.3,0,2.2c0,0.4,0,0.9,0,1.3s0,0.9,0,1.3c0,0.9-0.4,1.7-0.4,2.6c-0.4,0.9-0.4,1.7-0.9,2.6
	c0,0.4-0.4,0.9-0.4,1.3c-0.9-0.4-1.3,0-1.7,0.9l-1.7,2.6l-0.4,1.3c-0.4,0.4-0.4,0.4,0,0.9l0.4,0.9c0.4,0.4,0.9,1.3,1.3,1.7l0,0
	c0.4-0.4,0.4-0.9,0.9-1.3c1.3-1.3,2.6-3,3.9-4.3c0.9-0.9,1.7-1.7,2.2-2.6c0.4-0.4,0.4-0.9,0.9-0.9c0.9-1.3,1.3-2.2,1.7-3.9
	c0-0.9,0.4-1.7,0.4-2.2s0-1.3,0-1.7v-0.4c0-0.9,0.4-1.3,1.3-1.3c0.4,0,0.4,0,0.9,0s0.4,0.4,0.9,0.9c0,0.4,0,0.9,0,1.3s0,1.3,0,1.7
	c0,1.3-0.4,3-0.9,4.3c-0.4,0.9-0.9,1.7-1.3,2.6c-0.4,0.9-1.3,1.7-1.7,2.2c-1.3,1.7-2.6,3-3.9,4.3c-0.9,0.9-1.7,1.7-2.2,3l-0.4,0.9
	v0.4l0,0c0.4,0.9,0.9,2.2,0.9,3.5c0,0.9,0.4,1.3,0.4,2.2c0,1.3,0.4,3,0,4.3v0.4c0,1.3,0,2.2,0,3.5c0,0.4,0,0.9,0,1.3
	c0,1.7,0,3.5,0,5.6s0,3.5,0,4.7s0,3.5,0,5.2v8.2v5.2c0,1.7,0,3.5,0,5.2c0,2.2,0,3.9,0,6c0,0.4,0,0.4,0,0.9v0.4
	c0,0.4-0.4,0.4-0.9,0.9h-0.4h-0.4c-0.4,0-0.4-0.4-0.9-0.9v-0.4c0-0.4,0-0.9,0-1.3c0-0.4,0-0.9,0-1.3c0-1.3,0-2.6,0-3.9
	c0-1.7,0-3.5,0-5.2c0-1.7,0-3.5,0-5.6c0-1.3,0-2.6,0-3.9s0-3,0-4.3v-4.3c0-1.3,0-2.6,0-3.9c0-2.2,0-4.3,0-6v-5.6c0-0.4,0-0.9,0-1.7
	s0-1.3,0-1.7s0-0.9,0-1.3c0-0.4,0-0.9,0-1.3c0-1.3-0.4-2.2-0.9-3.5c-1.7,0-1.7-0.9-2.2-1.7s-0.9-1.3-1.7-2.2l-1.7-3
	c-0.4-0.4-1.3-1.3-1.7-1.7c-0.9-1.3-1.3-2.6-1.7-3.9c-0.4-1.3-0.9-2.2-0.9-3c0-1.3,0-2.2,0-3.5c0-0.4,0-0.9,0-1.3s0-0.9,0-0.9l0,0
	c0-0.4,0.4-0.9,1.3-1.3c0.4,0,0.4,0,0.9,0s0.4,0,0.9,0.4l0.4,0.4v0.4c0,0.4,0,0.4,0,0.9c0,0.4,0,0.4,0,0.9v1.3c0,0.4,0,0.9,0,1.7
	c0,0.4,0,1.3,0.4,1.7c0,0.9,0.4,1.7,0.9,2.6C70.4,40.2,70.9,41,71.7,41.9L71.7,41.9z"/>
<path class="st1" d="M64.4,34.1c0,0.4,0,1.3-0.4,1.7c0,0.4-0.4,0.9-0.9,1.3c0,0,0,0-0.4,0s-0.4,0-0.9,0l0,0c0-0.4,0-0.4-0.4-0.9
	v-0.4c0-0.4,0-1.3,0-1.7v-0.4c0.9-0.9,1.3-1.3,1.7-1.7h0.4H64l0,0l0.4,0.9C64.4,33.3,64.8,33.7,64.4,34.1z"/>
<path class="st1" d="M86.4,43.2H86c0,0,0,0-0.4,0l-0.4-0.4v-0.4c0-0.4,0.4-0.9,0.9-1.3s0.9-0.9,1.7-1.3c0.4,0,0.9-0.4,1.3-0.4h0h0.4
	c0.4,0,0.4,0.4,0.4,0.4v0.4c0,0.4,0,0.4-0.4,0.9v0.4c-0.4,0.4-0.9,0.9-1.3,1.3c-0.4,0.4-0.9,0.4-1.3,0.4H86.4z"/>
<path class="st1" d="M67,42.8c0,0.4,0,1.3-0.4,1.7c0,0,0,0,0,0.4l0,0h-0.4l0,0l-1.3-0.9c-0.4-0.4-0.4-0.9-0.9-1.3c0-0.4,0-0.9,0-1.3
	l0,0c0-0.4,0-0.9,0.4-1.3v-0.4c0,0,0,0,0-0.4s0.4-0.4,0.9,0c0,0,0.4,0,0.4,0.4c0.4,0.4,0.4,0.4,0.9,0.9C67,41,67,41.9,67,42.8z"/>
<path class="st1" d="M61.8,48.8L61.8,48.8l-0.9,0.4h-0.4l0,0h-0.9c-0.4,0-1.3-0.4-1.7-0.4s-0.9-0.4-1.3-1.3c0,0,0,0,0-0.4
	s0-0.4,0-0.9c0,0,0,0,0.4,0s1.3-0.4,1.7,0c0.4,0,0.9,0,1.3,0.4c0.4,0,0.4,0.4,0.9,0.4l0.4,0.9l0,0C61.8,48.4,61.8,48.8,61.8,48.8
	L61.8,48.8z"/>
<path class="st1" d="M89,35c0-1.3,0.4-2.6,1.7-3.5l0.4-0.4c0.4,0,0.9-0.4,1.3-0.4l0,0c0,0,0.4,0,0.4,0.4v0.4c0,0.4,0,1.3-0.4,1.7
	c0,0.4-0.4,0.9-0.9,1.3c0,0.4-0.4,0.4-0.9,0.9c-0.4,0-0.4,0-0.9,0.4h-0.4C89.4,35.9,89,35.4,89,35L89,35z"/>
<path class="st1" d="M76.5,43.2H76c-0.4,0-0.4-0.4-0.4-0.4v-0.4c0-0.9,0.9-1.7,1.3-2.2c0.4-0.4,1.3-0.9,1.7-0.9h0.4l0,0
	c0.4,0,0.4,0,0.9,0.4l0,0v0.4c0,0.4-0.4,0.9-0.4,1.3c-0.4,0.4-0.9,1.3-1.3,1.3C77.8,43.2,76.9,43.2,76.5,43.2z"/>
<path class="st1" d="M99.4,43.2c0,0.4,0,1.3-0.4,1.7c0,0.4-0.4,0.9-0.9,1.3c-0.4,0.4-0.4,0.4-0.9,0.9l-0.4,0.4h-0.4
	c-0.4,0-0.4,0-0.9-0.4v-0.4c0-0.4,0-0.4,0-0.9s0.4-1.3,0.9-1.7c0-0.4,0.4-0.4,0.4-0.4s0.4,0,0.4-0.4c0.4,0,0.4-0.4,0.9-0.4h0.4
	c0.4,0,0.4,0,0.4,0.4C99.4,42.3,99.4,42.8,99.4,43.2C99.4,42.8,99.4,42.8,99.4,43.2z"/>
<path class="st1" d="M72.2,50.1v0.4c0,0,0,0,0,0.4s-0.4,0.4-0.9,0.4c0,0,0,0-0.4,0c-0.4,0-1.3-0.4-1.7-0.9c0-0.9-0.4-1.3-0.4-1.7
	s0-1.3,0-1.7v-0.4c0-0.4,0.4-0.4,0.4-0.4s0,0,0.4,0s0.4,0,0.9,0.4c0,0,0.4,0,0.4,0.4c0,0,0.4,0.4,0.4,0.9c0.4,0.4,0.4,0.9,0.4,1.3
	S71.7,49.7,72.2,50.1L72.2,50.1z"/>
<path class="st1" d="M82.1,48.4h-0.4h-0.4c-0.4,0-0.4-0.4-0.4-0.9l0,0c0.4-0.9,1.3-1.3,2.2-1.7c0.4,0,0.9-0.4,1.3-0.4s0.9,0,0.9,0
	h0.4c0,0,0.4,0.4,0,0.9v0.4c-0.4,0.4-0.4,0.9-0.9,0.9c0,0.4-0.9,0.4-1.3,0.9C83,48.4,82.5,48.4,82.1,48.4z"/>
<path class="st1" d="M93.7,35.9h0.9c0.4,0,0.4,0,0.9,0.4c0,0,0,0,0.4,0v0.4c0,0,0,0,0,0.4c-0.4,0.9-1.7,1.3-2.6,1.7
	c-0.4,0-0.4,0-0.9,0s-0.9,0-1.3-0.4h-0.4l0,0c-0.4,0-0.4-0.4,0-0.9l0,0c0,0,0,0,0-0.4C91.2,36.7,92.4,36.3,93.7,35.9L93.7,35.9
	L93.7,35.9z"/>
<path class="st1" d="M84.2,28.5c0,0.9-0.4,1.7-0.9,2.2s-0.4,0.9-0.9,0.9c0,0,0,0.4-0.4,0.4s-0.9,0-0.9-0.4c0,0,0,0,0-0.4v-0.9
	c0,0,0,0,0-0.4s0-0.9,0.4-1.3c0-0.4,0.4-0.9,0.9-1.3c0.4-0.4,0.4-0.4,0.9-0.9h0.4h0.4l0.4,0.4c0,0.4,0,0.4,0,0.9
	C84.2,28.1,84.2,28.5,84.2,28.5z"/>
<path class="st1" d="M80.4,37.6c-0.4,0-0.9,0-1.3,0c-0.4,0-0.4-0.4-0.4-0.9v-0.4l0.4-0.4c0.4-0.4,1.3-0.9,2.2-1.3c0.4,0,0.9,0,0.9,0
	l0,0c0.4,0,0.4,0,0.9,0l0,0c0.4,0,0.4,0.4,0.4,0.4v0.4c0,0.4-0.4,0.9-0.9,0.9c-0.4,0.4-0.9,0.4-1.3,0.9
	C81.7,37.6,80.8,37.6,80.4,37.6z"/>
<path class="st1" d="M99.8,53.1c0.4,0,0.4,0,0.9,0c0.9,0,1.3,0.4,1.7,0.9c0,0,0,0,0,0.4c0,0,0,0.4,0,0.9c0,0,0,0-0.4,0.4
	c-0.4,0.4-1.3,0.4-2.2,0.9c-0.9,0-1.3,0-2.2-0.4c-0.4,0-0.4-0.4-0.9-0.4l0,0c-0.4,0-0.4-0.4,0-0.9c0,0,0,0,0.4-0.4
	c0.4-0.4,0.9-0.4,1.3-0.4C98.9,53.1,99.4,53.1,99.8,53.1z"/>
<path class="st1" d="M74.8,30.2c0,0.4,0,0.4,0,0.9c0,0,0,0,0,0.4L74.3,32h-0.4c-0.9-1.3-1.7-1.7-2.2-2.2c-0.4-0.9-0.9-2.2-0.4-3
	c0,0,0,0,0-0.4c0,0,0.4,0,0.4,0h0.4c0.4,0,0.9,0.4,0.9,0.4c0.4,0.4,0.9,0.4,0.9,0.9s0.4,0.4,0.4,0.9C74.8,28.9,74.8,29.8,74.8,30.2z
	"/>
<path class="st1" d="M90.7,49.2c0-0.4,0-1.3,0.4-1.7v-0.4c0.4-0.4,0.9-1.3,1.3-1.3l0.4-0.4l0,0h0.4c0,0,0,0,0,0.4c0,0,0,0,0,0.4
	s0,1.3,0,2.2c0,0.4-0.4,0.9-0.9,1.3s-0.9,0.9-1.3,0.9h-0.4c-0.4,0-0.4,0-0.9-0.4v-0.4C90.7,49.7,90.7,49.2,90.7,49.2z"/>
<path class="st1" d="M54.5,53.1c0.9,0,1.3,0,2.2,0.4c0,0,0.4,0,0.4,0.4c0.4,0.4,0.4,0.9,0,0.9l0,0c0,0-0.4,0-0.4,0.4
	c-0.4,0.4-1.3,0.4-1.7,0.4h-0.4c-0.9,0-1.7,0-2.6-0.9l0,0l0,0c0-0.4,0-0.4,0-0.9c0,0,0,0,0.4-0.4c0.4-0.4,1.3-0.4,1.7-0.9L54.5,53.1
	z"/>
<path class="st1" d="M54.5,40.2c0.9,0,2.2,0.4,2.6,1.3c0.4,0.4,0.4,0.4,0.4,0.9s0,0.4,0.4,0.9v0.4c0,0.4,0,0.4-0.4,0.9l0,0h-0.4
	c-0.4,0-0.9,0-0.9-0.4c-1.3-0.4-1.7-0.9-2.2-1.7c0-0.4-0.4-0.9-0.4-1.3v-0.4C53.6,40.6,53.6,40.2,54.5,40.2L54.5,40.2z"/>
<path class="st1" d="M66.1,56.1c0.4,0,0.9,0,1.3,0h0.4v0.4V57c-0.4,0.4-0.9,0.9-1.3,1.3c-0.4,0.4-0.9,0.4-1.7,0.9
	c-0.4,0-0.4,0-0.9,0h-0.9h-0.4c0,0,0,0-0.4,0v-0.4v-0.4c0.4-0.9,0.9-0.9,0.9-1.3c0.4-0.4,0.4-0.4,0.9-0.4
	C64.4,56.1,64.8,56.1,66.1,56.1L66.1,56.1z"/>
<path class="st1" d="M88.1,56.1c0.4,0,0.9,0,1.3,0c0.4,0,0.9,0.4,1.3,0.4c0.4,0.4,0.9,0.9,0.9,1.3l0,0v0.4v0.4c0,0,0,0-0.4,0h-0.4
	c-1.7,0.4-3.5-0.4-4.3-1.7c0,0,0-0.4-0.4-0.4c0,0,0,0,0-0.4c0-0.4,0-0.4,0.4-0.4h0.4L88.1,56.1z"/>
<path class="st1" d="M73,35.9c0,0.4,0,0.9,0,1.3v0.4c0,0,0,0,0,0.4c-0.9,0-0.9,0-1.3,0c0,0-0.4,0-0.4-0.4c-0.4-0.4-0.9-1.3-0.9-1.7
	c0-0.4,0-1.3,0-1.7c0-0.4,0.4-0.9,0.4-1.3s0.4-0.4,0.9-0.4l0,0l0,0c0.4,0.4,0.4,0.4,0.9,0.9S73,34.6,73,35V35.9z"/>
<path class="st1" d="M79.1,53.5L79.1,53.5c-0.4,0-0.9-0.4-0.9-0.4s0,0,0-0.4l0.4-0.9c0-0.4,0.4-0.4,0.4-0.9c0.4-0.4,0.9-0.9,1.3-1.3
	c0.4-0.4,1.3-0.4,1.7-0.4h0.4c0.4,0,0.4,0.4,0.4,0.4c0,0.4,0,0.4,0,0.9L82.5,51C82.1,52.3,80.8,53.1,79.1,53.5
	C79.5,53.5,79.5,53.5,79.1,53.5z"/>
</svg>
